<svg viewBox="0 0 24 24">
    <path clip-rule="evenodd" fill="currentColor"
        d="m 5.6040526,9.8599221 c 1.62937,0.7486119 3.762282,1.1229179 6.3987494,1.1229179 2.636468,0 4.769353,-0.374305 6.398787,-1.1229179 1.629305,-0.7486111 2.444024,-1.5965276 2.444024,-2.5437499 0,-0.9625002 -0.814719,-1.8142425 -2.444024,-2.5552022 -1.629434,-0.7409724 -3.762319,-1.1114646 -6.398787,-1.1114646 -1.634128,0 -3.0748043,0.1423334 -4.3220304,0.4269972 C 6.91575,4.2511091 6.2235108,4.4792652 5.6040526,4.76097 3.9746831,5.5019298 3.1599916,6.353672 3.1599916,7.3161722 c 0,0.9472222 0.8146915,1.7951388 2.444061,2.5437499 z m 0.1842187,4.6979189 c 1.7521866,0.672222 3.8236974,1.008331 6.2145307,1.008331 2.390835,0 4.46241,-0.336109 6.214594,-1.008331 1.752188,-0.672224 2.628217,-1.481944 2.628217,-2.429166 V 9.8370056 c 0,0.6111114 -0.307076,1.1343674 -0.921095,1.5697834 -0.614149,0.435418 -1.375548,0.790634 -2.284456,1.065633 -0.908782,0.275 -1.870877,0.477437 -2.886164,0.607296 -1.015286,0.129887 -1.932318,0.194786 -2.751097,0.194786 -0.802402,0 -1.715347,-0.06491 -2.73882,-0.194786 C 8.2405074,12.94986 7.2743484,12.743609 6.3655038,12.460971 5.4566593,12.178332 4.695208,11.819293 4.081111,11.383877 3.4670402,10.948472 3.1599916,10.43284 3.1599916,9.8370056 v 2.2916674 c 0,0.947222 0.8760931,1.756943 2.6282797,2.429168 z m 0,4.583329 c 1.7521866,0.672223 3.8236974,1.008335 6.2145307,1.008335 2.390835,0 4.46241,-0.336112 6.214594,-1.008335 1.752188,-0.672222 2.628217,-1.481943 2.628217,-2.429168 v -2.291663 c 0,0.611112 -0.307076,1.134344 -0.921095,1.56982 -0.614149,0.435355 -1.375548,0.790531 -2.284456,1.065654 -0.908782,0.275 -1.870877,0.4774 -2.886164,0.6072 -1.015286,0.129923 -1.932318,0.194824 -2.751097,0.194824 -0.802402,0 -1.715347,-0.06491 -2.73882,-0.194824 C 8.2405074,17.533213 7.2743484,17.326905 6.3655038,17.044326 5.4566593,16.761624 4.695208,16.402657 4.081111,15.967182 3.4670402,15.53183 3.1599916,15.016174 3.1599916,14.420341 v 2.29166 c 0,0.947224 0.8760931,1.756946 2.6282797,2.429169 z M 5.1250605,7.3161722 C 6.107595,6.3995055 7.5813969,5.4828386 12.002802,5.4828386 c 4.421403,0 5.895206,0.9166668 6.877742,1.8333336 -0.982535,0.9166665 -2.456338,1.8333331 -6.877742,1.8333331 -4.421405,0 -5.8952067,-0.9166666 -6.8777415,-1.8333331 z"></path>
</svg>