<svg width="728" height="160" viewBox="0 0 728 160" fill="none" xmlns="http://www.w3.org/2000/svg">
<g clip-path="url(#clip0_0_31)">
<path d="M272.53 84.5303C272.823 84.2374 272.823 83.7626 272.53 83.4697L267.757 78.6967C267.464 78.4038 266.99 78.4038 266.697 78.6967C266.404 78.9896 266.404 79.4645 266.697 79.7574L270.939 84L266.697 88.2426C266.404 88.5355 266.404 89.0104 266.697 89.3033C266.99 89.5962 267.464 89.5962 267.757 89.3033L272.53 84.5303ZM272 84C272 83.25 272 83.25 272 83.25C272 83.25 272 83.25 271.999 83.25C271.998 83.25 271.997 83.25 271.995 83.25C271.992 83.25 271.986 83.25 271.979 83.2499C271.964 83.2499 271.941 83.2498 271.91 83.2496C271.849 83.2491 271.758 83.2482 271.638 83.2464C271.397 83.2428 271.041 83.2356 270.582 83.2211C269.665 83.1921 268.339 83.1339 266.71 83.0175C263.449 82.7846 258.98 82.3189 254.142 81.3885C244.411 79.5171 233.404 75.8047 227.586 68.5315L226.414 69.4685C232.596 77.1953 244.089 80.9829 253.858 82.8615C258.77 83.8061 263.301 84.2779 266.603 84.5137C268.254 84.6317 269.6 84.6908 270.535 84.7203C271.002 84.7351 271.367 84.7425 271.615 84.7463C271.74 84.7481 271.835 84.7491 271.9 84.7495C271.932 84.7498 271.957 84.7499 271.973 84.7499C271.982 84.75 271.988 84.75 271.993 84.75C271.995 84.75 271.997 84.75 271.998 84.75C271.998 84.75 271.999 84.75 271.999 84.75C272 84.75 272 84.75 272 84Z" fill="var(--ds-neutral-outlined-border)"/>
<path d="M72.75 12C72.75 5.7868 77.7868 0.75 84 0.75H252C258.213 0.75 263.25 5.7868 263.25 12V41C263.25 47.2132 258.213 52.25 252 52.25H84C77.7868 52.25 72.75 47.2132 72.75 41V12Z" stroke="var(--ds-primary-outlined-border)" stroke-width="1.5"/>
<path d="M129.939 31L126.397 20.78H127.811L130.989 30.104L130.317 29.768H131.997L131.283 30.104L134.209 20.78H135.581L132.291 31H129.939ZM139.906 31.252C139.253 31.252 138.688 31.14 138.212 30.916C137.736 30.692 137.349 30.398 137.05 30.034C136.752 29.6607 136.528 29.2453 136.378 28.788C136.238 28.3307 136.168 27.864 136.168 27.388V27.136C136.168 26.6507 136.238 26.1793 136.378 25.722C136.528 25.2647 136.752 24.854 137.05 24.49C137.349 24.1167 137.727 23.8227 138.184 23.608C138.651 23.384 139.197 23.272 139.822 23.272C140.634 23.272 141.302 23.4493 141.824 23.804C142.356 24.1493 142.748 24.5973 143 25.148C143.262 25.6987 143.392 26.2867 143.392 26.912V27.514H136.756V26.506H142.412L142.104 27.052C142.104 26.52 142.02 26.0627 141.852 25.68C141.684 25.288 141.432 24.9847 141.096 24.77C140.76 24.5553 140.336 24.448 139.822 24.448C139.29 24.448 138.847 24.5693 138.492 24.812C138.147 25.0547 137.886 25.386 137.708 25.806C137.54 26.226 137.456 26.7113 137.456 27.262C137.456 27.794 137.54 28.2747 137.708 28.704C137.886 29.124 138.156 29.46 138.52 29.712C138.884 29.9547 139.346 30.076 139.906 30.076C140.494 30.076 140.97 29.9453 141.334 29.684C141.708 29.4227 141.932 29.1193 142.006 28.774H143.266C143.164 29.2873 142.958 29.7307 142.65 30.104C142.342 30.4773 141.955 30.762 141.488 30.958C141.022 31.154 140.494 31.252 139.906 31.252ZM148.507 31.252C147.863 31.252 147.303 31.14 146.827 30.916C146.36 30.692 145.973 30.3933 145.665 30.02C145.357 29.6373 145.123 29.2173 144.965 28.76C144.815 28.3027 144.741 27.8453 144.741 27.388V27.136C144.741 26.66 144.815 26.1933 144.965 25.736C145.123 25.2787 145.357 24.868 145.665 24.504C145.982 24.1307 146.374 23.832 146.841 23.608C147.307 23.384 147.853 23.272 148.479 23.272C149.104 23.272 149.664 23.3887 150.159 23.622C150.663 23.8553 151.064 24.1867 151.363 24.616C151.671 25.036 151.843 25.5353 151.881 26.114H150.593C150.527 25.6473 150.313 25.26 149.949 24.952C149.585 24.6347 149.095 24.476 148.479 24.476C147.947 24.476 147.503 24.5973 147.149 24.84C146.794 25.0827 146.528 25.414 146.351 25.834C146.173 26.254 146.085 26.73 146.085 27.262C146.085 27.7753 146.173 28.2467 146.351 28.676C146.528 29.096 146.794 29.432 147.149 29.684C147.513 29.9267 147.965 30.048 148.507 30.048C148.927 30.048 149.291 29.9733 149.599 29.824C149.907 29.6747 150.154 29.474 150.341 29.222C150.527 28.97 150.639 28.6853 150.677 28.368H151.965C151.937 28.956 151.764 29.4647 151.447 29.894C151.139 30.3233 150.728 30.6593 150.215 30.902C149.711 31.1353 149.141 31.252 148.507 31.252ZM156.703 31.084C156.143 31.084 155.658 31.0047 155.247 30.846C154.846 30.6873 154.533 30.4167 154.309 30.034C154.094 29.642 153.987 29.1147 153.987 28.452V21.256H155.275V28.62C155.275 29.0213 155.382 29.334 155.597 29.558C155.821 29.7727 156.134 29.88 156.535 29.88H157.851V31.084H156.703ZM152.699 24.532V23.524H157.851V24.532H152.699ZM163.141 31.252C162.488 31.252 161.914 31.14 161.419 30.916C160.925 30.692 160.505 30.398 160.159 30.034C159.823 29.6607 159.567 29.2453 159.389 28.788C159.221 28.3307 159.137 27.864 159.137 27.388V27.136C159.137 26.66 159.226 26.1933 159.403 25.736C159.581 25.2693 159.842 24.854 160.187 24.49C160.533 24.1167 160.953 23.8227 161.447 23.608C161.942 23.384 162.507 23.272 163.141 23.272C163.776 23.272 164.341 23.384 164.835 23.608C165.33 23.8227 165.75 24.1167 166.095 24.49C166.441 24.854 166.702 25.2693 166.879 25.736C167.057 26.1933 167.145 26.66 167.145 27.136V27.388C167.145 27.864 167.057 28.3307 166.879 28.788C166.711 29.2453 166.455 29.6607 166.109 30.034C165.773 30.398 165.358 30.692 164.863 30.916C164.369 31.14 163.795 31.252 163.141 31.252ZM163.141 30.048C163.701 30.048 164.177 29.9267 164.569 29.684C164.971 29.432 165.274 29.096 165.479 28.676C165.694 28.256 165.801 27.7847 165.801 27.262C165.801 26.73 165.694 26.254 165.479 25.834C165.265 25.414 164.957 25.0827 164.555 24.84C164.163 24.5973 163.692 24.476 163.141 24.476C162.6 24.476 162.129 24.5973 161.727 24.84C161.326 25.0827 161.018 25.414 160.803 25.834C160.589 26.254 160.481 26.73 160.481 27.262C160.481 27.7847 160.584 28.256 160.789 28.676C161.004 29.096 161.307 29.432 161.699 29.684C162.101 29.9267 162.581 30.048 163.141 30.048ZM169.158 31V23.524H170.222V26.604H170.166C170.166 25.512 170.404 24.714 170.88 24.21C171.365 23.6967 172.089 23.44 173.05 23.44H173.302V24.644H172.826C172.079 24.644 171.505 24.8447 171.104 25.246C170.703 25.638 170.502 26.2073 170.502 26.954V31H169.158ZM179.374 31.056V29.796H181.922C182.538 29.796 183.084 29.698 183.56 29.502C184.045 29.2967 184.456 29.0167 184.792 28.662C185.137 28.3073 185.399 27.892 185.576 27.416C185.753 26.94 185.842 26.4267 185.842 25.876C185.842 25.2973 185.753 24.7747 185.576 24.308C185.399 23.832 185.137 23.4213 184.792 23.076C184.456 22.7213 184.045 22.4507 183.56 22.264C183.084 22.0773 182.538 21.984 181.922 21.984H179.374V20.724H181.782C182.706 20.724 183.509 20.8687 184.19 21.158C184.871 21.438 185.436 21.8207 185.884 22.306C186.341 22.782 186.682 23.3187 186.906 23.916C187.13 24.504 187.242 25.106 187.242 25.722V26.03C187.242 26.6273 187.13 27.2247 186.906 27.822C186.682 28.4193 186.341 28.9607 185.884 29.446C185.436 29.9313 184.871 30.3233 184.19 30.622C183.509 30.9113 182.706 31.056 181.782 31.056H179.374ZM178.282 31.056V20.724H179.654V31.056H178.282ZM193.682 31V28.76H193.458V26.17C193.458 25.6567 193.323 25.2693 193.052 25.008C192.791 24.7467 192.403 24.616 191.89 24.616C191.601 24.616 191.302 24.6207 190.994 24.63C190.686 24.6393 190.392 24.6487 190.112 24.658C189.832 24.6673 189.589 24.6813 189.384 24.7V23.524C189.589 23.5053 189.804 23.4913 190.028 23.482C190.261 23.4633 190.499 23.454 190.742 23.454C190.985 23.4447 191.218 23.44 191.442 23.44C192.207 23.44 192.833 23.5333 193.318 23.72C193.803 23.8973 194.163 24.1913 194.396 24.602C194.629 25.0127 194.746 25.568 194.746 26.268V31H193.682ZM191.232 31.196C190.672 31.196 190.187 31.1027 189.776 30.916C189.375 30.72 189.062 30.44 188.838 30.076C188.623 29.712 188.516 29.2733 188.516 28.76C188.516 28.228 188.633 27.7847 188.866 27.43C189.109 27.0753 189.459 26.8093 189.916 26.632C190.373 26.4453 190.924 26.352 191.568 26.352H193.598V27.36H191.512C190.971 27.36 190.555 27.4907 190.266 27.752C189.977 28.0133 189.832 28.3493 189.832 28.76C189.832 29.1707 189.977 29.502 190.266 29.754C190.555 30.006 190.971 30.132 191.512 30.132C191.829 30.132 192.133 30.076 192.422 29.964C192.711 29.8427 192.949 29.6467 193.136 29.376C193.332 29.096 193.439 28.7133 193.458 28.228L193.822 28.76C193.775 29.292 193.645 29.74 193.43 30.104C193.225 30.4587 192.935 30.7293 192.562 30.916C192.198 31.1027 191.755 31.196 191.232 31.196ZM200.125 31.084C199.565 31.084 199.079 31.0047 198.669 30.846C198.267 30.6873 197.955 30.4167 197.731 30.034C197.516 29.642 197.409 29.1147 197.409 28.452V21.256H198.697V28.62C198.697 29.0213 198.804 29.334 199.019 29.558C199.243 29.7727 199.555 29.88 199.957 29.88H201.273V31.084H200.125ZM196.121 24.532V23.524H201.273V24.532H196.121ZM207.668 31V28.76H207.444V26.17C207.444 25.6567 207.309 25.2693 207.038 25.008C206.777 24.7467 206.39 24.616 205.876 24.616C205.587 24.616 205.288 24.6207 204.98 24.63C204.672 24.6393 204.378 24.6487 204.098 24.658C203.818 24.6673 203.576 24.6813 203.37 24.7V23.524C203.576 23.5053 203.79 23.4913 204.014 23.482C204.248 23.4633 204.486 23.454 204.728 23.454C204.971 23.4447 205.204 23.44 205.428 23.44C206.194 23.44 206.819 23.5333 207.304 23.72C207.79 23.8973 208.149 24.1913 208.382 24.602C208.616 25.0127 208.732 25.568 208.732 26.268V31H207.668ZM205.218 31.196C204.658 31.196 204.173 31.1027 203.762 30.916C203.361 30.72 203.048 30.44 202.824 30.076C202.61 29.712 202.502 29.2733 202.502 28.76C202.502 28.228 202.619 27.7847 202.852 27.43C203.095 27.0753 203.445 26.8093 203.902 26.632C204.36 26.4453 204.91 26.352 205.554 26.352H207.584V27.36H205.498C204.957 27.36 204.542 27.4907 204.252 27.752C203.963 28.0133 203.818 28.3493 203.818 28.76C203.818 29.1707 203.963 29.502 204.252 29.754C204.542 30.006 204.957 30.132 205.498 30.132C205.816 30.132 206.119 30.076 206.408 29.964C206.698 29.8427 206.936 29.6467 207.122 29.376C207.318 29.096 207.426 28.7133 207.444 28.228L207.808 28.76C207.762 29.292 207.631 29.74 207.416 30.104C207.211 30.4587 206.922 30.7293 206.548 30.916C206.184 31.1027 205.741 31.196 205.218 31.196Z" fill="var(--ds-text-primary)"/>
<rect x="0.75" y="107.75" width="190.5" height="51.5" rx="11.25" stroke="var(--ds-primary-outlined-border)" stroke-width="1.5"/>
<path d="M40.7483 138.252C39.899 138.252 39.1756 138.112 38.5783 137.832C37.981 137.552 37.5236 137.165 37.2063 136.67C36.889 136.175 36.7303 135.615 36.7303 134.99H38.1023C38.1023 135.298 38.1816 135.606 38.3403 135.914C38.5083 136.222 38.7836 136.479 39.1663 136.684C39.5583 136.889 40.0856 136.992 40.7483 136.992C41.3643 136.992 41.8683 136.903 42.2603 136.726C42.6523 136.539 42.9416 136.301 43.1283 136.012C43.315 135.713 43.4083 135.391 43.4083 135.046C43.4083 134.626 43.2263 134.281 42.8623 134.01C42.4983 133.73 41.9663 133.557 41.2663 133.492L40.1323 133.394C39.227 133.319 38.5036 133.039 37.9623 132.554C37.421 132.069 37.1503 131.429 37.1503 130.636C37.1503 130.011 37.2996 129.465 37.5983 128.998C37.9063 128.531 38.331 128.167 38.8723 127.906C39.4136 127.635 40.0436 127.5 40.7623 127.5C41.4716 127.5 42.097 127.631 42.6383 127.892C43.1796 128.153 43.5996 128.522 43.8983 128.998C44.2063 129.465 44.3603 130.025 44.3603 130.678H42.9883C42.9883 130.351 42.909 130.043 42.7503 129.754C42.601 129.465 42.363 129.227 42.0363 129.04C41.7096 128.853 41.285 128.76 40.7623 128.76C40.2583 128.76 39.8383 128.849 39.5023 129.026C39.1756 129.203 38.9283 129.437 38.7603 129.726C38.6016 130.006 38.5223 130.309 38.5223 130.636C38.5223 131.009 38.667 131.341 38.9563 131.63C39.2456 131.919 39.675 132.087 40.2443 132.134L41.3783 132.232C42.0783 132.288 42.6803 132.437 43.1843 132.68C43.6976 132.913 44.0896 133.231 44.3603 133.632C44.6403 134.024 44.7803 134.495 44.7803 135.046C44.7803 135.671 44.6123 136.227 44.2763 136.712C43.9403 137.197 43.469 137.575 42.8623 137.846C42.2556 138.117 41.551 138.252 40.7483 138.252ZM47.2506 138V130.524H48.5946V138H47.2506ZM46.1026 131.588V130.524H48.5946V131.588H46.1026ZM47.6286 129.32C47.33 129.32 47.106 129.241 46.9566 129.082C46.8166 128.923 46.7466 128.723 46.7466 128.48C46.7466 128.237 46.8166 128.037 46.9566 127.878C47.106 127.719 47.33 127.64 47.6286 127.64C47.9273 127.64 48.1466 127.719 48.2866 127.878C48.436 128.037 48.5106 128.237 48.5106 128.48C48.5106 128.723 48.436 128.923 48.2866 129.082C48.1466 129.241 47.9273 129.32 47.6286 129.32ZM51.1933 138V130.524H52.2573V133.73H52.0893C52.0893 133.002 52.1826 132.386 52.3693 131.882C52.5653 131.369 52.8546 130.977 53.2373 130.706C53.6199 130.435 54.1053 130.3 54.6933 130.3H54.7493C55.3373 130.3 55.8226 130.435 56.2053 130.706C56.5973 130.977 56.8866 131.369 57.0733 131.882C57.2599 132.386 57.3533 133.002 57.3533 133.73H56.9613C56.9613 133.002 57.0593 132.386 57.2553 131.882C57.4513 131.369 57.7406 130.977 58.1233 130.706C58.5153 130.435 59.0053 130.3 59.5933 130.3H59.6493C60.2373 130.3 60.7273 130.435 61.1193 130.706C61.5113 130.977 61.8006 131.369 61.9873 131.882C62.1833 132.386 62.2813 133.002 62.2813 133.73V138H60.9373V133.436C60.9373 132.829 60.7879 132.363 60.4893 132.036C60.1906 131.7 59.7753 131.532 59.2433 131.532C58.6926 131.532 58.2493 131.709 57.9133 132.064C57.5773 132.409 57.4093 132.895 57.4093 133.52V138H56.0653V133.436C56.0653 132.829 55.9159 132.363 55.6173 132.036C55.3186 131.7 54.9033 131.532 54.3713 131.532C53.8206 131.532 53.3773 131.709 53.0413 132.064C52.7053 132.409 52.5373 132.895 52.5373 133.52V138H51.1933ZM65.1061 138V130.524H66.4501V138H65.1061ZM63.9581 131.588V130.524H66.4501V131.588H63.9581ZM65.4841 129.32C65.1854 129.32 64.9614 129.241 64.8121 129.082C64.6721 128.923 64.6021 128.723 64.6021 128.48C64.6021 128.237 64.6721 128.037 64.8121 127.878C64.9614 127.719 65.1854 127.64 65.4841 127.64C65.7828 127.64 66.0021 127.719 66.1421 127.878C66.2914 128.037 66.3661 128.237 66.3661 128.48C66.3661 128.723 66.2914 128.923 66.1421 129.082C66.0021 129.241 65.7828 129.32 65.4841 129.32ZM69.1327 138V127.78H70.4767V138H69.1327ZM68.0967 128.844V127.78H70.4767V128.844H68.0967ZM77.5766 138V135.76H77.3526V133.17C77.3526 132.657 77.2173 132.269 76.9466 132.008C76.6853 131.747 76.2979 131.616 75.7846 131.616C75.4953 131.616 75.1966 131.621 74.8886 131.63C74.5806 131.639 74.2866 131.649 74.0066 131.658C73.7266 131.667 73.4839 131.681 73.2786 131.7V130.524C73.4839 130.505 73.6986 130.491 73.9226 130.482C74.1559 130.463 74.3939 130.454 74.6366 130.454C74.8793 130.445 75.1126 130.44 75.3366 130.44C76.1019 130.44 76.7273 130.533 77.2126 130.72C77.6979 130.897 78.0573 131.191 78.2906 131.602C78.5239 132.013 78.6406 132.568 78.6406 133.268V138H77.5766ZM75.1266 138.196C74.5666 138.196 74.0813 138.103 73.6706 137.916C73.2693 137.72 72.9566 137.44 72.7326 137.076C72.5179 136.712 72.4106 136.273 72.4106 135.76C72.4106 135.228 72.5273 134.785 72.7606 134.43C73.0033 134.075 73.3533 133.809 73.8106 133.632C74.2679 133.445 74.8186 133.352 75.4626 133.352H77.4926V134.36H75.4066C74.8653 134.36 74.4499 134.491 74.1606 134.752C73.8713 135.013 73.7266 135.349 73.7266 135.76C73.7266 136.171 73.8713 136.502 74.1606 136.754C74.4499 137.006 74.8653 137.132 75.4066 137.132C75.7239 137.132 76.0273 137.076 76.3166 136.964C76.6059 136.843 76.8439 136.647 77.0306 136.376C77.2266 136.096 77.3339 135.713 77.3526 135.228L77.7166 135.76C77.6699 136.292 77.5393 136.74 77.3246 137.104C77.1193 137.459 76.8299 137.729 76.4566 137.916C76.0926 138.103 75.6493 138.196 75.1266 138.196ZM81.1073 138V130.524H82.1713V133.604H82.1153C82.1153 132.512 82.3533 131.714 82.8293 131.21C83.3147 130.697 84.038 130.44 84.9993 130.44H85.2513V131.644H84.7753C84.0287 131.644 83.4547 131.845 83.0533 132.246C82.652 132.638 82.4513 133.207 82.4513 133.954V138H81.1073ZM87.2135 138V130.524H88.5575V138H87.2135ZM86.0655 131.588V130.524H88.5575V131.588H86.0655ZM87.5915 129.32C87.2929 129.32 87.0689 129.241 86.9195 129.082C86.7795 128.923 86.7095 128.723 86.7095 128.48C86.7095 128.237 86.7795 128.037 86.9195 127.878C87.0689 127.719 87.2929 127.64 87.5915 127.64C87.8902 127.64 88.1095 127.719 88.2495 127.878C88.3989 128.037 88.4735 128.237 88.4735 128.48C88.4735 128.723 88.3989 128.923 88.2495 129.082C88.1095 129.241 87.8902 129.32 87.5915 129.32ZM94.0682 138.084C93.5082 138.084 93.0228 138.005 92.6122 137.846C92.2108 137.687 91.8982 137.417 91.6742 137.034C91.4595 136.642 91.3522 136.115 91.3522 135.452V128.256H92.6402V135.62C92.6402 136.021 92.7475 136.334 92.9622 136.558C93.1862 136.773 93.4988 136.88 93.9002 136.88H95.2162V138.084H94.0682ZM90.0642 131.532V130.524H95.2162V131.532H90.0642ZM96.6131 140.912V139.708H97.6911C98.0084 139.708 98.2744 139.666 98.4891 139.582C98.7131 139.507 98.8951 139.377 99.0351 139.19C99.1844 139.003 99.3058 138.756 99.3991 138.448L101.751 130.524H103.067L100.575 138.798C100.426 139.293 100.216 139.694 99.9451 140.002C99.6744 140.319 99.3431 140.548 98.9511 140.688C98.5684 140.837 98.1204 140.912 97.6071 140.912H96.6131ZM98.8951 137.832V136.712H100.519V137.832H98.8951ZM98.7551 137.832L96.0811 130.524H97.4531L100.015 137.832H98.7551ZM111.473 138.252C110.624 138.252 109.9 138.112 109.303 137.832C108.706 137.552 108.248 137.165 107.931 136.67C107.614 136.175 107.455 135.615 107.455 134.99H108.827C108.827 135.298 108.906 135.606 109.065 135.914C109.233 136.222 109.508 136.479 109.891 136.684C110.283 136.889 110.81 136.992 111.473 136.992C112.089 136.992 112.593 136.903 112.985 136.726C113.377 136.539 113.666 136.301 113.853 136.012C114.04 135.713 114.133 135.391 114.133 135.046C114.133 134.626 113.951 134.281 113.587 134.01C113.223 133.73 112.691 133.557 111.991 133.492L110.857 133.394C109.952 133.319 109.228 133.039 108.687 132.554C108.146 132.069 107.875 131.429 107.875 130.636C107.875 130.011 108.024 129.465 108.323 128.998C108.631 128.531 109.056 128.167 109.597 127.906C110.138 127.635 110.768 127.5 111.487 127.5C112.196 127.5 112.822 127.631 113.363 127.892C113.904 128.153 114.324 128.522 114.623 128.998C114.931 129.465 115.085 130.025 115.085 130.678H113.713C113.713 130.351 113.634 130.043 113.475 129.754C113.326 129.465 113.088 129.227 112.761 129.04C112.434 128.853 112.01 128.76 111.487 128.76C110.983 128.76 110.563 128.849 110.227 129.026C109.9 129.203 109.653 129.437 109.485 129.726C109.326 130.006 109.247 130.309 109.247 130.636C109.247 131.009 109.392 131.341 109.681 131.63C109.97 131.919 110.4 132.087 110.969 132.134L112.103 132.232C112.803 132.288 113.405 132.437 113.909 132.68C114.422 132.913 114.814 133.231 115.085 133.632C115.365 134.024 115.505 134.495 115.505 135.046C115.505 135.671 115.337 136.227 115.001 136.712C114.665 137.197 114.194 137.575 113.587 137.846C112.98 138.117 112.276 138.252 111.473 138.252ZM120.789 138.252C120.136 138.252 119.571 138.14 119.095 137.916C118.619 137.692 118.232 137.398 117.933 137.034C117.635 136.661 117.411 136.245 117.261 135.788C117.121 135.331 117.051 134.864 117.051 134.388V134.136C117.051 133.651 117.121 133.179 117.261 132.722C117.411 132.265 117.635 131.854 117.933 131.49C118.232 131.117 118.61 130.823 119.067 130.608C119.534 130.384 120.08 130.272 120.705 130.272C121.517 130.272 122.185 130.449 122.707 130.804C123.239 131.149 123.631 131.597 123.883 132.148C124.145 132.699 124.275 133.287 124.275 133.912V134.514H117.639V133.506H123.295L122.987 134.052C122.987 133.52 122.903 133.063 122.735 132.68C122.567 132.288 122.315 131.985 121.979 131.77C121.643 131.555 121.219 131.448 120.705 131.448C120.173 131.448 119.73 131.569 119.375 131.812C119.03 132.055 118.769 132.386 118.591 132.806C118.423 133.226 118.339 133.711 118.339 134.262C118.339 134.794 118.423 135.275 118.591 135.704C118.769 136.124 119.039 136.46 119.403 136.712C119.767 136.955 120.229 137.076 120.789 137.076C121.377 137.076 121.853 136.945 122.217 136.684C122.591 136.423 122.815 136.119 122.889 135.774H124.149C124.047 136.287 123.841 136.731 123.533 137.104C123.225 137.477 122.838 137.762 122.371 137.958C121.905 138.154 121.377 138.252 120.789 138.252ZM130.706 138V135.76H130.482V133.17C130.482 132.657 130.346 132.269 130.076 132.008C129.814 131.747 129.427 131.616 128.914 131.616C128.624 131.616 128.326 131.621 128.018 131.63C127.71 131.639 127.416 131.649 127.136 131.658C126.856 131.667 126.613 131.681 126.408 131.7V130.524C126.613 130.505 126.828 130.491 127.052 130.482C127.285 130.463 127.523 130.454 127.766 130.454C128.008 130.445 128.242 130.44 128.466 130.44C129.231 130.44 129.856 130.533 130.342 130.72C130.827 130.897 131.186 131.191 131.42 131.602C131.653 132.013 131.77 132.568 131.77 133.268V138H130.706ZM128.256 138.196C127.696 138.196 127.21 138.103 126.8 137.916C126.398 137.72 126.086 137.44 125.862 137.076C125.647 136.712 125.54 136.273 125.54 135.76C125.54 135.228 125.656 134.785 125.89 134.43C126.132 134.075 126.482 133.809 126.94 133.632C127.397 133.445 127.948 133.352 128.592 133.352H130.622V134.36H128.536C127.994 134.36 127.579 134.491 127.29 134.752C127 135.013 126.856 135.349 126.856 135.76C126.856 136.171 127 136.502 127.29 136.754C127.579 137.006 127.994 137.132 128.536 137.132C128.853 137.132 129.156 137.076 129.446 136.964C129.735 136.843 129.973 136.647 130.16 136.376C130.356 136.096 130.463 135.713 130.482 135.228L130.846 135.76C130.799 136.292 130.668 136.74 130.454 137.104C130.248 137.459 129.959 137.729 129.586 137.916C129.222 138.103 128.778 138.196 128.256 138.196ZM134.236 138V130.524H135.3V133.604H135.244C135.244 132.512 135.482 131.714 135.958 131.21C136.444 130.697 137.167 130.44 138.128 130.44H138.38V131.644H137.904C137.158 131.644 136.584 131.845 136.182 132.246C135.781 132.638 135.58 133.207 135.58 133.954V138H134.236ZM143.102 138.252C142.458 138.252 141.898 138.14 141.422 137.916C140.956 137.692 140.568 137.393 140.26 137.02C139.952 136.637 139.719 136.217 139.56 135.76C139.411 135.303 139.336 134.845 139.336 134.388V134.136C139.336 133.66 139.411 133.193 139.56 132.736C139.719 132.279 139.952 131.868 140.26 131.504C140.578 131.131 140.97 130.832 141.436 130.608C141.903 130.384 142.449 130.272 143.074 130.272C143.7 130.272 144.26 130.389 144.754 130.622C145.258 130.855 145.66 131.187 145.958 131.616C146.266 132.036 146.439 132.535 146.476 133.114H145.188C145.123 132.647 144.908 132.26 144.544 131.952C144.18 131.635 143.69 131.476 143.074 131.476C142.542 131.476 142.099 131.597 141.744 131.84C141.39 132.083 141.124 132.414 140.946 132.834C140.769 133.254 140.68 133.73 140.68 134.262C140.68 134.775 140.769 135.247 140.946 135.676C141.124 136.096 141.39 136.432 141.744 136.684C142.108 136.927 142.561 137.048 143.102 137.048C143.522 137.048 143.886 136.973 144.194 136.824C144.502 136.675 144.75 136.474 144.936 136.222C145.123 135.97 145.235 135.685 145.272 135.368H146.56C146.532 135.956 146.36 136.465 146.042 136.894C145.734 137.323 145.324 137.659 144.81 137.902C144.306 138.135 143.737 138.252 143.102 138.252ZM148.387 138V127.78H149.731V133.884H149.395C149.395 133.147 149.488 132.512 149.675 131.98C149.871 131.439 150.169 131.023 150.571 130.734C150.972 130.445 151.485 130.3 152.111 130.3H152.167C153.063 130.3 153.739 130.599 154.197 131.196C154.654 131.784 154.883 132.629 154.883 133.73V138H153.539V133.45C153.539 132.843 153.366 132.372 153.021 132.036C152.685 131.7 152.246 131.532 151.705 131.532C151.107 131.532 150.627 131.733 150.263 132.134C149.908 132.526 149.731 133.044 149.731 133.688V138H148.387Z" fill="var(--ds-text-primary)"/>
<path d="M272.53 134.03C272.823 133.737 272.823 133.263 272.53 132.97L267.757 128.197C267.464 127.904 266.99 127.904 266.697 128.197C266.404 128.49 266.404 128.964 266.697 129.257L270.939 133.5L266.697 137.743C266.404 138.036 266.404 138.51 266.697 138.803C266.99 139.096 267.464 139.096 267.757 138.803L272.53 134.03ZM208 134.25H272V132.75H208V134.25Z" fill="var(--ds-neutral-outlined-border)"/>
<path d="M520.53 110.03C520.823 109.737 520.823 109.263 520.53 108.97L515.757 104.197C515.464 103.904 514.99 103.904 514.697 104.197C514.404 104.49 514.404 104.964 514.697 105.257L518.939 109.5L514.697 113.743C514.404 114.036 514.404 114.51 514.697 114.803C514.99 115.096 515.464 115.096 515.757 114.803L520.53 110.03ZM456 110.25H520V108.75H456V110.25Z" fill="var(--ds-neutral-outlined-border)"/>
<rect x="536.75" y="83.75" width="190.5" height="51.5" rx="11.25" stroke="var(--ds-primary-outlined-border)" stroke-width="1.5"/>
<path d="M566.027 114V103.78H568.267L573.461 112.768H573.909L573.629 113.02V103.78H574.945V114H572.677L567.483 105.012H567.035L567.315 104.76V114H566.027ZM580.89 114.252C580.236 114.252 579.672 114.14 579.196 113.916C578.72 113.692 578.332 113.398 578.034 113.034C577.735 112.661 577.511 112.245 577.362 111.788C577.222 111.331 577.152 110.864 577.152 110.388V110.136C577.152 109.651 577.222 109.179 577.362 108.722C577.511 108.265 577.735 107.854 578.034 107.49C578.332 107.117 578.71 106.823 579.168 106.608C579.634 106.384 580.18 106.272 580.806 106.272C581.618 106.272 582.285 106.449 582.808 106.804C583.34 107.149 583.732 107.597 583.984 108.148C584.245 108.699 584.376 109.287 584.376 109.912V110.514H577.74V109.506H583.396L583.088 110.052C583.088 109.52 583.004 109.063 582.836 108.68C582.668 108.288 582.416 107.985 582.08 107.77C581.744 107.555 581.319 107.448 580.806 107.448C580.274 107.448 579.83 107.569 579.476 107.812C579.13 108.055 578.869 108.386 578.692 108.806C578.524 109.226 578.44 109.711 578.44 110.262C578.44 110.794 578.524 111.275 578.692 111.704C578.869 112.124 579.14 112.46 579.504 112.712C579.868 112.955 580.33 113.076 580.89 113.076C581.478 113.076 581.954 112.945 582.318 112.684C582.691 112.423 582.915 112.119 582.99 111.774H584.25C584.147 112.287 583.942 112.731 583.634 113.104C583.326 113.477 582.938 113.762 582.472 113.958C582.005 114.154 581.478 114.252 580.89 114.252ZM590.806 114V111.76H590.582V109.17C590.582 108.657 590.447 108.269 590.176 108.008C589.915 107.747 589.527 107.616 589.014 107.616C588.725 107.616 588.426 107.621 588.118 107.63C587.81 107.639 587.516 107.649 587.236 107.658C586.956 107.667 586.713 107.681 586.508 107.7V106.524C586.713 106.505 586.928 106.491 587.152 106.482C587.385 106.463 587.623 106.454 587.866 106.454C588.109 106.445 588.342 106.44 588.566 106.44C589.331 106.44 589.957 106.533 590.442 106.72C590.927 106.897 591.287 107.191 591.52 107.602C591.753 108.013 591.87 108.568 591.87 109.268V114H590.806ZM588.356 114.196C587.796 114.196 587.311 114.103 586.9 113.916C586.499 113.72 586.186 113.44 585.962 113.076C585.747 112.712 585.64 112.273 585.64 111.76C585.64 111.228 585.757 110.785 585.99 110.43C586.233 110.075 586.583 109.809 587.04 109.632C587.497 109.445 588.048 109.352 588.692 109.352H590.722V110.36H588.636C588.095 110.36 587.679 110.491 587.39 110.752C587.101 111.013 586.956 111.349 586.956 111.76C586.956 112.171 587.101 112.502 587.39 112.754C587.679 113.006 588.095 113.132 588.636 113.132C588.953 113.132 589.257 113.076 589.546 112.964C589.835 112.843 590.073 112.647 590.26 112.376C590.456 112.096 590.563 111.713 590.582 111.228L590.946 111.76C590.899 112.292 590.769 112.74 590.554 113.104C590.349 113.459 590.059 113.729 589.686 113.916C589.322 114.103 588.879 114.196 588.356 114.196ZM594.337 114V106.524H595.401V109.604H595.345C595.345 108.512 595.583 107.714 596.059 107.21C596.544 106.697 597.267 106.44 598.229 106.44H598.481V107.644H598.005C597.258 107.644 596.684 107.845 596.283 108.246C595.881 108.638 595.681 109.207 595.681 109.954V114H594.337ZM603.175 114.252C602.522 114.252 601.957 114.14 601.481 113.916C601.005 113.692 600.618 113.398 600.319 113.034C600.02 112.661 599.796 112.245 599.647 111.788C599.507 111.331 599.437 110.864 599.437 110.388V110.136C599.437 109.651 599.507 109.179 599.647 108.722C599.796 108.265 600.02 107.854 600.319 107.49C600.618 107.117 600.996 106.823 601.453 106.608C601.92 106.384 602.466 106.272 603.091 106.272C603.903 106.272 604.57 106.449 605.093 106.804C605.625 107.149 606.017 107.597 606.269 108.148C606.53 108.699 606.661 109.287 606.661 109.912V110.514H600.025V109.506H605.681L605.373 110.052C605.373 109.52 605.289 109.063 605.121 108.68C604.953 108.288 604.701 107.985 604.365 107.77C604.029 107.555 603.604 107.448 603.091 107.448C602.559 107.448 602.116 107.569 601.761 107.812C601.416 108.055 601.154 108.386 600.977 108.806C600.809 109.226 600.725 109.711 600.725 110.262C600.725 110.794 600.809 111.275 600.977 111.704C601.154 112.124 601.425 112.46 601.789 112.712C602.153 112.955 602.615 113.076 603.175 113.076C603.763 113.076 604.239 112.945 604.603 112.684C604.976 112.423 605.2 112.119 605.275 111.774H606.535C606.432 112.287 606.227 112.731 605.919 113.104C605.611 113.477 605.224 113.762 604.757 113.958C604.29 114.154 603.763 114.252 603.175 114.252ZM611.019 114.224C610.039 114.224 609.279 114.014 608.737 113.594C608.205 113.174 607.93 112.6 607.911 111.872H609.171C609.19 112.161 609.335 112.437 609.605 112.698C609.885 112.95 610.357 113.076 611.019 113.076C611.617 113.076 612.074 112.959 612.391 112.726C612.709 112.483 612.867 112.189 612.867 111.844C612.867 111.536 612.751 111.298 612.517 111.13C612.284 110.953 611.906 110.836 611.383 110.78L610.571 110.696C609.862 110.621 609.283 110.411 608.835 110.066C608.387 109.711 608.163 109.217 608.163 108.582C608.163 108.106 608.285 107.7 608.527 107.364C608.77 107.019 609.106 106.757 609.535 106.58C609.965 106.393 610.459 106.3 611.019 106.3C611.859 106.3 612.541 106.487 613.063 106.86C613.586 107.233 613.857 107.789 613.875 108.526H612.615C612.606 108.227 612.466 107.975 612.195 107.77C611.934 107.555 611.542 107.448 611.019 107.448C610.497 107.448 610.1 107.555 609.829 107.77C609.559 107.985 609.423 108.255 609.423 108.582C609.423 108.862 609.517 109.086 609.703 109.254C609.899 109.422 610.217 109.529 610.655 109.576L611.467 109.66C612.27 109.744 612.914 109.968 613.399 110.332C613.885 110.687 614.127 111.191 614.127 111.844C614.127 112.311 613.992 112.726 613.721 113.09C613.46 113.445 613.096 113.725 612.629 113.93C612.163 114.126 611.626 114.224 611.019 114.224ZM618.987 114.084C618.427 114.084 617.942 114.005 617.531 113.846C617.13 113.687 616.817 113.417 616.593 113.034C616.378 112.642 616.271 112.115 616.271 111.452V104.256H617.559V111.62C617.559 112.021 617.666 112.334 617.881 112.558C618.105 112.773 618.418 112.88 618.819 112.88H620.135V114.084H618.987ZM614.983 107.532V106.524H620.135V107.532H614.983ZM625.418 114V103.78H627.658L632.852 112.768H633.3L633.02 113.02V103.78H634.336V114H632.068L626.874 105.012H626.426L626.706 104.76V114H625.418ZM640.28 114.252C639.627 114.252 639.062 114.14 638.586 113.916C638.11 113.692 637.723 113.398 637.424 113.034C637.126 112.661 636.902 112.245 636.752 111.788C636.612 111.331 636.542 110.864 636.542 110.388V110.136C636.542 109.651 636.612 109.179 636.752 108.722C636.902 108.265 637.126 107.854 637.424 107.49C637.723 107.117 638.101 106.823 638.558 106.608C639.025 106.384 639.571 106.272 640.196 106.272C641.008 106.272 641.676 106.449 642.198 106.804C642.73 107.149 643.122 107.597 643.374 108.148C643.636 108.699 643.766 109.287 643.766 109.912V110.514H637.13V109.506H642.786L642.478 110.052C642.478 109.52 642.394 109.063 642.226 108.68C642.058 108.288 641.806 107.985 641.47 107.77C641.134 107.555 640.71 107.448 640.196 107.448C639.664 107.448 639.221 107.569 638.866 107.812C638.521 108.055 638.26 108.386 638.082 108.806C637.914 109.226 637.83 109.711 637.83 110.262C637.83 110.794 637.914 111.275 638.082 111.704C638.26 112.124 638.53 112.46 638.894 112.712C639.258 112.955 639.72 113.076 640.28 113.076C640.868 113.076 641.344 112.945 641.708 112.684C642.082 112.423 642.306 112.119 642.38 111.774H643.64C643.538 112.287 643.332 112.731 643.024 113.104C642.716 113.477 642.329 113.762 641.862 113.958C641.396 114.154 640.868 114.252 640.28 114.252ZM646.039 114V106.524H647.383V114H646.039ZM644.891 107.588V106.524H647.383V107.588H644.891ZM646.417 105.32C646.118 105.32 645.894 105.241 645.745 105.082C645.605 104.923 645.535 104.723 645.535 104.48C645.535 104.237 645.605 104.037 645.745 103.878C645.894 103.719 646.118 103.64 646.417 103.64C646.715 103.64 646.935 103.719 647.075 103.878C647.224 104.037 647.299 104.237 647.299 104.48C647.299 104.723 647.224 104.923 647.075 105.082C646.935 105.241 646.715 105.32 646.417 105.32ZM652.809 116.912C652.464 116.912 652.114 116.898 651.759 116.87C651.414 116.842 651.083 116.805 650.765 116.758V115.624C651.101 115.671 651.451 115.708 651.815 115.736C652.189 115.773 652.539 115.792 652.865 115.792C653.547 115.792 654.088 115.699 654.489 115.512C654.9 115.335 655.194 115.05 655.371 114.658C655.558 114.275 655.651 113.781 655.651 113.174V111.746L656.099 110.682C656.071 111.438 655.913 112.068 655.623 112.572C655.334 113.067 654.956 113.44 654.489 113.692C654.032 113.935 653.523 114.056 652.963 114.056C652.441 114.056 651.96 113.958 651.521 113.762C651.092 113.557 650.719 113.277 650.401 112.922C650.093 112.567 649.851 112.161 649.673 111.704C649.505 111.237 649.421 110.747 649.421 110.234V109.982C649.421 109.459 649.51 108.974 649.687 108.526C649.865 108.069 650.112 107.672 650.429 107.336C650.747 107 651.125 106.739 651.563 106.552C652.011 106.365 652.501 106.272 653.033 106.272C653.659 106.272 654.209 106.407 654.685 106.678C655.161 106.939 655.535 107.327 655.805 107.84C656.085 108.344 656.239 108.965 656.267 109.702L655.875 109.716V106.524H656.939V113.118C656.939 114.014 656.799 114.737 656.519 115.288C656.249 115.848 655.81 116.259 655.203 116.52C654.606 116.781 653.808 116.912 652.809 116.912ZM653.215 112.824C653.663 112.824 654.069 112.726 654.433 112.53C654.807 112.334 655.101 112.054 655.315 111.69C655.539 111.317 655.651 110.873 655.651 110.36V109.716C655.651 109.212 655.535 108.787 655.301 108.442C655.077 108.097 654.783 107.835 654.419 107.658C654.055 107.481 653.659 107.392 653.229 107.392C652.744 107.392 652.315 107.504 651.941 107.728C651.568 107.952 651.279 108.269 651.073 108.68C650.868 109.081 650.765 109.557 650.765 110.108C650.765 110.659 650.868 111.139 651.073 111.55C651.288 111.961 651.577 112.278 651.941 112.502C652.315 112.717 652.739 112.824 653.215 112.824ZM659.429 114V103.78H660.773V109.884H660.437C660.437 109.147 660.53 108.512 660.717 107.98C660.913 107.439 661.211 107.023 661.613 106.734C662.014 106.445 662.527 106.3 663.153 106.3H663.209C664.105 106.3 664.781 106.599 665.239 107.196C665.696 107.784 665.925 108.629 665.925 109.73V114H664.581V109.45C664.581 108.843 664.408 108.372 664.063 108.036C663.727 107.7 663.288 107.532 662.747 107.532C662.149 107.532 661.669 107.733 661.305 108.134C660.95 108.526 660.773 109.044 660.773 109.688V114H659.429ZM672.332 114.252C671.716 114.252 671.165 114.117 670.68 113.846C670.204 113.575 669.826 113.183 669.546 112.67C669.266 112.147 669.112 111.522 669.084 110.794H669.448V114H668.384V103.78H669.728V108.75L669.252 109.772C669.289 108.96 669.452 108.297 669.742 107.784C670.031 107.271 670.409 106.893 670.876 106.65C671.352 106.398 671.874 106.272 672.444 106.272C672.976 106.272 673.461 106.375 673.9 106.58C674.338 106.776 674.716 107.051 675.034 107.406C675.351 107.751 675.594 108.157 675.762 108.624C675.93 109.081 676.014 109.576 676.014 110.108V110.36C676.014 110.892 675.925 111.391 675.748 111.858C675.58 112.325 675.332 112.74 675.006 113.104C674.679 113.459 674.287 113.739 673.83 113.944C673.382 114.149 672.882 114.252 672.332 114.252ZM672.178 113.076C672.682 113.076 673.12 112.955 673.494 112.712C673.867 112.469 674.156 112.138 674.362 111.718C674.567 111.289 674.67 110.794 674.67 110.234C674.67 109.674 674.562 109.184 674.348 108.764C674.142 108.344 673.853 108.022 673.48 107.798C673.106 107.565 672.672 107.448 672.178 107.448C671.73 107.448 671.314 107.551 670.932 107.756C670.549 107.952 670.241 108.241 670.008 108.624C669.784 108.997 669.672 109.45 669.672 109.982V110.626C669.672 111.139 669.788 111.578 670.022 111.942C670.255 112.306 670.563 112.586 670.946 112.782C671.328 112.978 671.739 113.076 672.178 113.076ZM681.48 114.252C680.827 114.252 680.253 114.14 679.758 113.916C679.263 113.692 678.843 113.398 678.498 113.034C678.162 112.661 677.905 112.245 677.728 111.788C677.56 111.331 677.476 110.864 677.476 110.388V110.136C677.476 109.66 677.565 109.193 677.742 108.736C677.919 108.269 678.181 107.854 678.526 107.49C678.871 107.117 679.291 106.823 679.786 106.608C680.281 106.384 680.845 106.272 681.48 106.272C682.115 106.272 682.679 106.384 683.174 106.608C683.669 106.823 684.089 107.117 684.434 107.49C684.779 107.854 685.041 108.269 685.218 108.736C685.395 109.193 685.484 109.66 685.484 110.136V110.388C685.484 110.864 685.395 111.331 685.218 111.788C685.05 112.245 684.793 112.661 684.448 113.034C684.112 113.398 683.697 113.692 683.202 113.916C682.707 114.14 682.133 114.252 681.48 114.252ZM681.48 113.048C682.04 113.048 682.516 112.927 682.908 112.684C683.309 112.432 683.613 112.096 683.818 111.676C684.033 111.256 684.14 110.785 684.14 110.262C684.14 109.73 684.033 109.254 683.818 108.834C683.603 108.414 683.295 108.083 682.894 107.84C682.502 107.597 682.031 107.476 681.48 107.476C680.939 107.476 680.467 107.597 680.066 107.84C679.665 108.083 679.357 108.414 679.142 108.834C678.927 109.254 678.82 109.73 678.82 110.262C678.82 110.785 678.923 111.256 679.128 111.676C679.343 112.096 679.646 112.432 680.038 112.684C680.439 112.927 680.92 113.048 681.48 113.048ZM687.497 114V106.524H688.561V109.604H688.505C688.505 108.512 688.743 107.714 689.219 107.21C689.704 106.697 690.428 106.44 691.389 106.44H691.641V107.644H691.165C690.418 107.644 689.844 107.845 689.443 108.246C689.042 108.638 688.841 109.207 688.841 109.954V114H687.497ZM695.689 114.224C694.709 114.224 693.949 114.014 693.407 113.594C692.875 113.174 692.6 112.6 692.581 111.872H693.841C693.86 112.161 694.005 112.437 694.275 112.698C694.555 112.95 695.027 113.076 695.689 113.076C696.287 113.076 696.744 112.959 697.061 112.726C697.379 112.483 697.537 112.189 697.537 111.844C697.537 111.536 697.421 111.298 697.187 111.13C696.954 110.953 696.576 110.836 696.053 110.78L695.241 110.696C694.532 110.621 693.953 110.411 693.505 110.066C693.057 109.711 692.833 109.217 692.833 108.582C692.833 108.106 692.955 107.7 693.197 107.364C693.44 107.019 693.776 106.757 694.205 106.58C694.635 106.393 695.129 106.3 695.689 106.3C696.529 106.3 697.211 106.487 697.733 106.86C698.256 107.233 698.527 107.789 698.545 108.526H697.285C697.276 108.227 697.136 107.975 696.865 107.77C696.604 107.555 696.212 107.448 695.689 107.448C695.167 107.448 694.77 107.555 694.499 107.77C694.229 107.985 694.093 108.255 694.093 108.582C694.093 108.862 694.187 109.086 694.373 109.254C694.569 109.422 694.887 109.529 695.325 109.576L696.137 109.66C696.94 109.744 697.584 109.968 698.069 110.332C698.555 110.687 698.797 111.191 698.797 111.844C698.797 112.311 698.662 112.726 698.391 113.09C698.13 113.445 697.766 113.725 697.299 113.93C696.833 114.126 696.296 114.224 695.689 114.224Z" fill="var(--ds-text-primary)"/>
<path d="M372 104L352.248 92.75M372 104V81.5M372 104L391.75 92.75M352.248 92.75L372 81.5M352.248 92.75V70.25M372 81.5L391.75 92.75M372 81.5L352.248 70.25M372 81.5V59M372 81.5L391.75 70.25M391.75 92.75V70.25M352.248 70.25L372 59M372 59L391.75 70.25M352.253 92.75V70.25M391.746 92.75V70.25M391.752 92.75V70.25" stroke="var(--ds-neutral-outlined-hover-border)" stroke-width="1.5" stroke-linecap="round" stroke-linejoin="round"/>
<path d="M337.268 133L341.476 121.32H344.132L348.468 133H346.852L342.932 122.344L343.7 122.728H341.812L342.628 122.344L338.836 133H337.268ZM339.78 129.512L340.308 128.104H345.348L345.876 129.512H339.78ZM353.155 133.256C352.035 133.256 351.165 133.016 350.547 132.536C349.939 132.056 349.624 131.4 349.603 130.568H351.043C351.064 130.899 351.229 131.213 351.539 131.512C351.859 131.8 352.397 131.944 353.155 131.944C353.837 131.944 354.36 131.811 354.723 131.544C355.085 131.267 355.267 130.931 355.267 130.536C355.267 130.184 355.133 129.912 354.867 129.72C354.6 129.517 354.168 129.384 353.571 129.32L352.643 129.224C351.832 129.139 351.171 128.899 350.659 128.504C350.147 128.099 349.891 127.533 349.891 126.808C349.891 126.264 350.029 125.8 350.307 125.416C350.584 125.021 350.968 124.723 351.459 124.52C351.949 124.307 352.515 124.2 353.155 124.2C354.115 124.2 354.893 124.413 355.491 124.84C356.088 125.267 356.397 125.901 356.419 126.744H354.979C354.968 126.403 354.808 126.115 354.499 125.88C354.2 125.635 353.752 125.512 353.155 125.512C352.557 125.512 352.104 125.635 351.795 125.88C351.485 126.125 351.331 126.435 351.331 126.808C351.331 127.128 351.437 127.384 351.651 127.576C351.875 127.768 352.237 127.891 352.739 127.944L353.667 128.04C354.584 128.136 355.32 128.392 355.875 128.808C356.429 129.213 356.707 129.789 356.707 130.536C356.707 131.069 356.552 131.544 356.243 131.96C355.944 132.365 355.528 132.685 354.995 132.92C354.461 133.144 353.848 133.256 353.155 133.256ZM362.261 133.096C361.621 133.096 361.066 133.005 360.597 132.824C360.138 132.643 359.781 132.333 359.525 131.896C359.28 131.448 359.157 130.845 359.157 130.088V121.864H360.629V130.28C360.629 130.739 360.752 131.096 360.997 131.352C361.253 131.597 361.61 131.72 362.069 131.72H363.573V133.096H362.261ZM357.685 125.608V124.456H363.573V125.608H357.685ZM365.745 133V124.456H366.961V127.976H366.897C366.897 126.728 367.169 125.816 367.713 125.24C368.268 124.653 369.095 124.36 370.193 124.36H370.481V125.736H369.937C369.084 125.736 368.428 125.965 367.969 126.424C367.511 126.872 367.281 127.523 367.281 128.376V133H365.745ZM377.445 133V130.44H377.189V127.48C377.189 126.893 377.034 126.451 376.725 126.152C376.426 125.853 375.983 125.704 375.397 125.704C375.066 125.704 374.725 125.709 374.373 125.72C374.021 125.731 373.685 125.741 373.365 125.752C373.045 125.763 372.767 125.779 372.533 125.8V124.456C372.767 124.435 373.013 124.419 373.269 124.408C373.535 124.387 373.807 124.376 374.085 124.376C374.362 124.365 374.629 124.36 374.885 124.36C375.759 124.36 376.474 124.467 377.029 124.68C377.583 124.883 377.994 125.219 378.261 125.688C378.527 126.157 378.661 126.792 378.661 127.592V133H377.445ZM374.645 133.224C374.005 133.224 373.45 133.117 372.981 132.904C372.522 132.68 372.165 132.36 371.909 131.944C371.663 131.528 371.541 131.027 371.541 130.44C371.541 129.832 371.674 129.325 371.941 128.92C372.218 128.515 372.618 128.211 373.141 128.008C373.663 127.795 374.293 127.688 375.029 127.688H377.349V128.84H374.965C374.346 128.84 373.871 128.989 373.541 129.288C373.21 129.587 373.045 129.971 373.045 130.44C373.045 130.909 373.21 131.288 373.541 131.576C373.871 131.864 374.346 132.008 374.965 132.008C375.327 132.008 375.674 131.944 376.005 131.816C376.335 131.677 376.607 131.453 376.821 131.144C377.045 130.824 377.167 130.387 377.189 129.832L377.605 130.44C377.551 131.048 377.402 131.56 377.157 131.976C376.922 132.381 376.591 132.691 376.165 132.904C375.749 133.117 375.242 133.224 374.645 133.224ZM386.592 133.064V131.624H389.504C390.208 131.624 390.832 131.512 391.376 131.288C391.931 131.053 392.4 130.733 392.784 130.328C393.179 129.923 393.478 129.448 393.68 128.904C393.883 128.36 393.984 127.773 393.984 127.144C393.984 126.483 393.883 125.885 393.68 125.352C393.478 124.808 393.179 124.339 392.784 123.944C392.4 123.539 391.931 123.229 391.376 123.016C390.832 122.803 390.208 122.696 389.504 122.696H386.592V121.256H389.344C390.4 121.256 391.318 121.421 392.096 121.752C392.875 122.072 393.52 122.509 394.032 123.064C394.555 123.608 394.944 124.221 395.2 124.904C395.456 125.576 395.584 126.264 395.584 126.968V127.32C395.584 128.003 395.456 128.685 395.2 129.368C394.944 130.051 394.555 130.669 394.032 131.224C393.52 131.779 392.875 132.227 392.096 132.568C391.318 132.899 390.4 133.064 389.344 133.064H386.592ZM385.344 133.064V121.256H386.912V133.064H385.344ZM399.249 133.064V131.688H402.513C403.142 131.688 403.627 131.512 403.969 131.16C404.321 130.797 404.497 130.317 404.497 129.72C404.497 129.112 404.326 128.637 403.985 128.296C403.643 127.944 403.153 127.768 402.513 127.768H399.249V126.744H402.289C403.035 126.744 403.691 126.835 404.257 127.016C404.833 127.197 405.281 127.501 405.601 127.928C405.931 128.344 406.097 128.915 406.097 129.64V129.864C406.097 130.547 405.958 131.128 405.681 131.608C405.403 132.077 404.982 132.44 404.417 132.696C403.851 132.941 403.142 133.064 402.289 133.064H399.249ZM398.001 133.064V121.256H399.569V133.064H398.001ZM399.249 127.48V126.456H402.081C402.742 126.456 403.227 126.28 403.537 125.928C403.857 125.565 404.017 125.107 404.017 124.552C404.017 123.987 403.857 123.528 403.537 123.176C403.227 122.813 402.742 122.632 402.081 122.632H399.249V121.256H401.809C403.089 121.256 404.043 121.528 404.673 122.072C405.302 122.605 405.617 123.379 405.617 124.392V124.616C405.617 125.331 405.457 125.901 405.137 126.328C404.817 126.744 404.369 127.043 403.793 127.224C403.227 127.395 402.566 127.48 401.809 127.48H399.249ZM300.386 157.288C299.416 157.288 298.589 157.128 297.906 156.808C297.224 156.488 296.701 156.045 296.338 155.48C295.976 154.915 295.794 154.275 295.794 153.56H297.362C297.362 153.912 297.453 154.264 297.634 154.616C297.826 154.968 298.141 155.261 298.578 155.496C299.026 155.731 299.629 155.848 300.386 155.848C301.09 155.848 301.666 155.747 302.114 155.544C302.562 155.331 302.893 155.059 303.106 154.728C303.32 154.387 303.426 154.019 303.426 153.624C303.426 153.144 303.218 152.749 302.802 152.44C302.386 152.12 301.778 151.923 300.978 151.848L299.682 151.736C298.648 151.651 297.821 151.331 297.202 150.776C296.584 150.221 296.274 149.491 296.274 148.584C296.274 147.869 296.445 147.245 296.786 146.712C297.138 146.179 297.624 145.763 298.242 145.464C298.861 145.155 299.581 145 300.402 145C301.213 145 301.928 145.149 302.546 145.448C303.165 145.747 303.645 146.168 303.986 146.712C304.338 147.245 304.514 147.885 304.514 148.632H302.946C302.946 148.259 302.856 147.907 302.674 147.576C302.504 147.245 302.232 146.973 301.858 146.76C301.485 146.547 301 146.44 300.402 146.44C299.826 146.44 299.346 146.541 298.962 146.744C298.589 146.947 298.306 147.213 298.114 147.544C297.933 147.864 297.842 148.211 297.842 148.584C297.842 149.011 298.008 149.389 298.338 149.72C298.669 150.051 299.16 150.243 299.81 150.296L301.106 150.408C301.906 150.472 302.594 150.643 303.17 150.92C303.757 151.187 304.205 151.549 304.514 152.008C304.834 152.456 304.994 152.995 304.994 153.624C304.994 154.339 304.802 154.973 304.418 155.528C304.034 156.083 303.496 156.515 302.802 156.824C302.109 157.133 301.304 157.288 300.386 157.288ZM311.034 157.288C310.287 157.288 309.642 157.16 309.098 156.904C308.554 156.648 308.111 156.312 307.77 155.896C307.428 155.469 307.172 154.995 307.002 154.472C306.842 153.949 306.762 153.416 306.762 152.872V152.584C306.762 152.029 306.842 151.491 307.002 150.968C307.172 150.445 307.428 149.976 307.77 149.56C308.111 149.133 308.543 148.797 309.066 148.552C309.599 148.296 310.223 148.168 310.938 148.168C311.866 148.168 312.628 148.371 313.226 148.776C313.834 149.171 314.282 149.683 314.57 150.312C314.868 150.941 315.018 151.613 315.018 152.328V153.016H307.434V151.864H313.898L313.546 152.488C313.546 151.88 313.45 151.357 313.258 150.92C313.066 150.472 312.778 150.125 312.394 149.88C312.01 149.635 311.524 149.512 310.938 149.512C310.33 149.512 309.823 149.651 309.418 149.928C309.023 150.205 308.724 150.584 308.522 151.064C308.33 151.544 308.234 152.099 308.234 152.728C308.234 153.336 308.33 153.885 308.522 154.376C308.724 154.856 309.034 155.24 309.45 155.528C309.866 155.805 310.394 155.944 311.034 155.944C311.706 155.944 312.25 155.795 312.666 155.496C313.092 155.197 313.348 154.851 313.434 154.456H314.874C314.756 155.043 314.522 155.549 314.17 155.976C313.818 156.403 313.375 156.728 312.842 156.952C312.308 157.176 311.706 157.288 311.034 157.288ZM317.199 157V148.456H318.415V151.976H318.351C318.351 150.728 318.623 149.816 319.167 149.24C319.721 148.653 320.548 148.36 321.647 148.36H321.935V149.736H321.391C320.537 149.736 319.881 149.965 319.423 150.424C318.964 150.872 318.735 151.523 318.735 152.376V157H317.199ZM325.866 157L322.954 148.456H324.554L327.402 157H325.866ZM326.25 157V155.784H328.106V157H326.25ZM326.986 157L329.466 148.456H330.97L328.442 157H326.986ZM336.456 157.288C335.709 157.288 335.064 157.16 334.52 156.904C333.976 156.648 333.533 156.312 333.192 155.896C332.85 155.469 332.594 154.995 332.424 154.472C332.264 153.949 332.184 153.416 332.184 152.872V152.584C332.184 152.029 332.264 151.491 332.424 150.968C332.594 150.445 332.85 149.976 333.192 149.56C333.533 149.133 333.965 148.797 334.488 148.552C335.021 148.296 335.645 148.168 336.36 148.168C337.288 148.168 338.05 148.371 338.648 148.776C339.256 149.171 339.704 149.683 339.992 150.312C340.29 150.941 340.44 151.613 340.44 152.328V153.016H332.856V151.864H339.32L338.968 152.488C338.968 151.88 338.872 151.357 338.68 150.92C338.488 150.472 338.2 150.125 337.816 149.88C337.432 149.635 336.946 149.512 336.36 149.512C335.752 149.512 335.245 149.651 334.84 149.928C334.445 150.205 334.146 150.584 333.944 151.064C333.752 151.544 333.656 152.099 333.656 152.728C333.656 153.336 333.752 153.885 333.944 154.376C334.146 154.856 334.456 155.24 334.872 155.528C335.288 155.805 335.816 155.944 336.456 155.944C337.128 155.944 337.672 155.795 338.088 155.496C338.514 155.197 338.77 154.851 338.856 154.456H340.296C340.178 155.043 339.944 155.549 339.592 155.976C339.24 156.403 338.797 156.728 338.264 156.952C337.73 157.176 337.128 157.288 336.456 157.288ZM342.62 157V148.456H343.836V151.976H343.772C343.772 150.728 344.044 149.816 344.588 149.24C345.143 148.653 345.97 148.36 347.068 148.36H347.356V149.736H346.812C345.959 149.736 345.303 149.965 344.844 150.424C344.386 150.872 344.156 151.523 344.156 152.376V157H342.62ZM349.279 157V145.32H350.815V157H349.279ZM348.095 146.536V145.32H350.815V146.536H348.095ZM357.393 157.288C356.646 157.288 356.001 157.16 355.457 156.904C354.913 156.648 354.47 156.312 354.129 155.896C353.788 155.469 353.532 154.995 353.361 154.472C353.201 153.949 353.121 153.416 353.121 152.872V152.584C353.121 152.029 353.201 151.491 353.361 150.968C353.532 150.445 353.788 149.976 354.129 149.56C354.47 149.133 354.902 148.797 355.425 148.552C355.958 148.296 356.582 148.168 357.297 148.168C358.225 148.168 358.988 148.371 359.585 148.776C360.193 149.171 360.641 149.683 360.929 150.312C361.228 150.941 361.377 151.613 361.377 152.328V153.016H353.793V151.864H360.257L359.905 152.488C359.905 151.88 359.809 151.357 359.617 150.92C359.425 150.472 359.137 150.125 358.753 149.88C358.369 149.635 357.884 149.512 357.297 149.512C356.689 149.512 356.182 149.651 355.777 149.928C355.382 150.205 355.084 150.584 354.881 151.064C354.689 151.544 354.593 152.099 354.593 152.728C354.593 153.336 354.689 153.885 354.881 154.376C355.084 154.856 355.393 155.24 355.809 155.528C356.225 155.805 356.753 155.944 357.393 155.944C358.065 155.944 358.609 155.795 359.025 155.496C359.452 155.197 359.708 154.851 359.793 154.456H361.233C361.116 155.043 360.881 155.549 360.529 155.976C360.177 156.403 359.734 156.728 359.201 156.952C358.668 157.176 358.065 157.288 357.393 157.288ZM366.358 157.256C365.238 157.256 364.369 157.016 363.75 156.536C363.142 156.056 362.827 155.4 362.806 154.568H364.246C364.267 154.899 364.433 155.213 364.742 155.512C365.062 155.8 365.601 155.944 366.358 155.944C367.041 155.944 367.563 155.811 367.926 155.544C368.289 155.267 368.47 154.931 368.47 154.536C368.47 154.184 368.337 153.912 368.07 153.72C367.803 153.517 367.371 153.384 366.774 153.32L365.846 153.224C365.035 153.139 364.374 152.899 363.862 152.504C363.35 152.099 363.094 151.533 363.094 150.808C363.094 150.264 363.233 149.8 363.51 149.416C363.787 149.021 364.171 148.723 364.662 148.52C365.153 148.307 365.718 148.2 366.358 148.2C367.318 148.2 368.097 148.413 368.694 148.84C369.291 149.267 369.601 149.901 369.622 150.744H368.182C368.171 150.403 368.011 150.115 367.702 149.88C367.403 149.635 366.955 149.512 366.358 149.512C365.761 149.512 365.307 149.635 364.998 149.88C364.689 150.125 364.534 150.435 364.534 150.808C364.534 151.128 364.641 151.384 364.854 151.576C365.078 151.768 365.441 151.891 365.942 151.944L366.87 152.04C367.787 152.136 368.523 152.392 369.078 152.808C369.633 153.213 369.91 153.789 369.91 154.536C369.91 155.069 369.755 155.544 369.446 155.96C369.147 156.365 368.731 156.685 368.198 156.92C367.665 157.144 367.051 157.256 366.358 157.256ZM374.936 157.256C373.816 157.256 372.947 157.016 372.328 156.536C371.72 156.056 371.405 155.4 371.384 154.568H372.824C372.845 154.899 373.011 155.213 373.32 155.512C373.64 155.8 374.179 155.944 374.936 155.944C375.619 155.944 376.141 155.811 376.504 155.544C376.867 155.267 377.048 154.931 377.048 154.536C377.048 154.184 376.915 153.912 376.648 153.72C376.381 153.517 375.949 153.384 375.352 153.32L374.424 153.224C373.613 153.139 372.952 152.899 372.44 152.504C371.928 152.099 371.672 151.533 371.672 150.808C371.672 150.264 371.811 149.8 372.088 149.416C372.365 149.021 372.749 148.723 373.24 148.52C373.731 148.307 374.296 148.2 374.936 148.2C375.896 148.2 376.675 148.413 377.272 148.84C377.869 149.267 378.179 149.901 378.2 150.744H376.76C376.749 150.403 376.589 150.115 376.28 149.88C375.981 149.635 375.533 149.512 374.936 149.512C374.339 149.512 373.885 149.635 373.576 149.88C373.267 150.125 373.112 150.435 373.112 150.808C373.112 151.128 373.219 151.384 373.432 151.576C373.656 151.768 374.019 151.891 374.52 151.944L375.448 152.04C376.365 152.136 377.101 152.392 377.656 152.808C378.211 153.213 378.488 153.789 378.488 154.536C378.488 155.069 378.333 155.544 378.024 155.96C377.725 156.365 377.309 156.685 376.776 156.92C376.243 157.144 375.629 157.256 374.936 157.256ZM386.883 159.912C386.317 159.261 385.816 158.552 385.379 157.784C384.952 157.027 384.621 156.189 384.387 155.272C384.152 154.344 384.035 153.315 384.035 152.184C384.035 151.053 384.152 150.029 384.387 149.112C384.632 148.195 384.968 147.363 385.395 146.616C385.832 145.869 386.328 145.192 386.883 144.584H388.643C387.981 145.299 387.416 146.04 386.947 146.808C386.488 147.576 386.136 148.403 385.891 149.288C385.656 150.163 385.539 151.128 385.539 152.184C385.539 153.24 385.656 154.216 385.891 155.112C386.125 155.997 386.472 156.829 386.931 157.608C387.4 158.397 387.971 159.165 388.643 159.912H386.883ZM393.361 157L389.313 145.32H390.929L394.561 155.976L393.793 155.592H395.713L394.897 155.976L398.241 145.32H399.809L396.049 157H393.361ZM404.752 157.288C404.006 157.288 403.36 157.16 402.816 156.904C402.272 156.648 401.83 156.312 401.488 155.896C401.147 155.469 400.891 154.995 400.72 154.472C400.56 153.949 400.48 153.416 400.48 152.872V152.584C400.48 152.029 400.56 151.491 400.72 150.968C400.891 150.445 401.147 149.976 401.488 149.56C401.83 149.133 402.262 148.797 402.784 148.552C403.318 148.296 403.942 148.168 404.656 148.168C405.584 148.168 406.347 148.371 406.944 148.776C407.552 149.171 408 149.683 408.288 150.312C408.587 150.941 408.736 151.613 408.736 152.328V153.016H401.152V151.864H407.616L407.264 152.488C407.264 151.88 407.168 151.357 406.976 150.92C406.784 150.472 406.496 150.125 406.112 149.88C405.728 149.635 405.243 149.512 404.656 149.512C404.048 149.512 403.542 149.651 403.136 149.928C402.742 150.205 402.443 150.584 402.24 151.064C402.048 151.544 401.952 152.099 401.952 152.728C401.952 153.336 402.048 153.885 402.24 154.376C402.443 154.856 402.752 155.24 403.168 155.528C403.584 155.805 404.112 155.944 404.752 155.944C405.424 155.944 405.968 155.795 406.384 155.496C406.811 155.197 407.067 154.851 407.152 154.456H408.592C408.475 155.043 408.24 155.549 407.888 155.976C407.536 156.403 407.094 156.728 406.56 156.952C406.027 157.176 405.424 157.288 404.752 157.288ZM414.581 157.288C413.845 157.288 413.205 157.16 412.661 156.904C412.128 156.648 411.685 156.307 411.333 155.88C410.981 155.443 410.715 154.963 410.533 154.44C410.363 153.917 410.277 153.395 410.277 152.872V152.584C410.277 152.04 410.363 151.507 410.533 150.984C410.715 150.461 410.981 149.992 411.333 149.576C411.696 149.149 412.144 148.808 412.677 148.552C413.211 148.296 413.835 148.168 414.549 148.168C415.264 148.168 415.904 148.301 416.469 148.568C417.045 148.835 417.504 149.213 417.845 149.704C418.197 150.184 418.395 150.755 418.437 151.416H416.965C416.891 150.883 416.645 150.44 416.229 150.088C415.813 149.725 415.253 149.544 414.549 149.544C413.941 149.544 413.435 149.683 413.029 149.96C412.624 150.237 412.32 150.616 412.117 151.096C411.915 151.576 411.813 152.12 411.813 152.728C411.813 153.315 411.915 153.853 412.117 154.344C412.32 154.824 412.624 155.208 413.029 155.496C413.445 155.773 413.963 155.912 414.581 155.912C415.061 155.912 415.477 155.827 415.829 155.656C416.181 155.485 416.464 155.256 416.677 154.968C416.891 154.68 417.019 154.355 417.061 153.992H418.533C418.501 154.664 418.304 155.245 417.941 155.736C417.589 156.227 417.12 156.611 416.533 156.888C415.957 157.155 415.307 157.288 414.581 157.288ZM423.948 157.096C423.308 157.096 422.754 157.005 422.284 156.824C421.826 156.643 421.468 156.333 421.212 155.896C420.967 155.448 420.844 154.845 420.844 154.088V145.864H422.316V154.28C422.316 154.739 422.439 155.096 422.684 155.352C422.94 155.597 423.298 155.72 423.756 155.72H425.26V157.096H423.948ZM419.372 149.608V148.456H425.26V149.608H419.372ZM431.306 157.288C430.56 157.288 429.904 157.16 429.338 156.904C428.773 156.648 428.293 156.312 427.898 155.896C427.514 155.469 427.221 154.995 427.018 154.472C426.826 153.949 426.73 153.416 426.73 152.872V152.584C426.73 152.04 426.832 151.507 427.034 150.984C427.237 150.451 427.536 149.976 427.93 149.56C428.325 149.133 428.805 148.797 429.37 148.552C429.936 148.296 430.581 148.168 431.306 148.168C432.032 148.168 432.677 148.296 433.242 148.552C433.808 148.797 434.288 149.133 434.682 149.56C435.077 149.976 435.376 150.451 435.578 150.984C435.781 151.507 435.882 152.04 435.882 152.584V152.872C435.882 153.416 435.781 153.949 435.578 154.472C435.386 154.995 435.093 155.469 434.698 155.896C434.314 156.312 433.84 156.648 433.274 156.904C432.709 157.16 432.053 157.288 431.306 157.288ZM431.306 155.912C431.946 155.912 432.49 155.773 432.938 155.496C433.397 155.208 433.744 154.824 433.978 154.344C434.224 153.864 434.346 153.325 434.346 152.728C434.346 152.12 434.224 151.576 433.978 151.096C433.733 150.616 433.381 150.237 432.922 149.96C432.474 149.683 431.936 149.544 431.306 149.544C430.688 149.544 430.149 149.683 429.69 149.96C429.232 150.237 428.88 150.616 428.634 151.096C428.389 151.576 428.266 152.12 428.266 152.728C428.266 153.325 428.384 153.864 428.618 154.344C428.864 154.824 429.21 155.208 429.658 155.496C430.117 155.773 430.666 155.912 431.306 155.912ZM438.183 157V148.456H439.399V151.976H439.335C439.335 150.728 439.607 149.816 440.151 149.24C440.706 148.653 441.532 148.36 442.631 148.36H442.919V149.736H442.375C441.522 149.736 440.866 149.965 440.407 150.424C439.948 150.872 439.719 151.523 439.719 152.376V157H438.183ZM445.102 159.912H443.342C444.014 159.165 444.579 158.397 445.038 157.608C445.507 156.829 445.859 155.997 446.094 155.112C446.329 154.216 446.446 153.24 446.446 152.184C446.446 151.128 446.323 150.163 446.078 149.288C445.843 148.403 445.491 147.576 445.022 146.808C444.563 146.04 444.003 145.299 443.342 144.584H445.102C445.657 145.192 446.147 145.869 446.574 146.616C447.011 147.363 447.347 148.195 447.582 149.112C447.827 150.029 447.95 151.053 447.95 152.184C447.95 153.315 447.833 154.344 447.598 155.272C447.363 156.189 447.027 157.027 446.59 157.784C446.163 158.552 445.667 159.261 445.102 159.912Z" fill="var(--ds-text-primary)"/>
</g>
<defs>
<clipPath id="clip0_0_31">
<rect width="728" height="160" fill="white"/>
</clipPath>
</defs>
</svg>
