<svg xmlns="http://www.w3.org/2000/svg" width="287" height="40" fill="none" viewBox="0 0 287 40">
    <path fill="#090909" d="M0 0h192.307v40H0V0Z" />
    <g clip-path="url(#a)">
        <g clip-path="url(#b)">
            <g clip-path="url(#c)">
                <path fill="#fff"
                    d="M112.424 15.144v-2.62H99.972l-3.38 2.62v3.597l3.38 2.62h10.852v3.693h-13.56v2.617h12.787l3.382-2.617v-3.693l-3.382-2.62H99.2v-3.597h13.224Zm-65.175-2.62h-2.375L36.16 27.671h3.013l6.893-11.98 6.884 11.98h3.01l-8.71-15.147Zm25.898 0H56.305v2.62h7.118V27.67h2.606V15.144h7.118v-2.62Zm61.311 0h-16.839v2.62h7.115V27.67h2.609V15.144h7.115v-2.62Zm-104.978 0H16.02v15.147h13.46l3.381-2.62v-9.907l-3.38-2.62Zm-10.852 2.62h11.625v9.91H18.628v-9.91Zm146.633 4.954-1.508-2.62v.002l-2.849-4.956h-3.013l4.358 7.574-4.358 7.573h3.013l2.849-4.953 1.508-2.62Zm4.284 0 1.508-2.62v.002l2.853-4.956h3.009l-4.354 7.574 4.354 7.573h-3.009l-2.853-4.953-1.508-2.62Zm-87.341-7.574h2.375l8.712 15.147H90.28l-6.893-11.98-6.885 11.98h-3.01l8.713-15.147Zm61.31 0h2.376l8.712 15.147h-3.01l-6.895-11.98-6.882 11.98h-3.013l8.712-15.147Z" />
            </g>
        </g>
    </g>
    <path fill="#fff" stroke="#090909" stroke-width="2" d="M193.307 1h91.846v38h-91.846V1Z" />
    <path fill="#090909"
        d="M208.673 27.748v-1.293h3.674c.91 0 1.704-.147 2.381-.443a5.04 5.04 0 0 0 1.736-1.2 5.186 5.186 0 0 0 1.052-1.772 6.347 6.347 0 0 0 .351-2.123c0-.775-.123-1.495-.37-2.16a4.965 4.965 0 0 0-1.052-1.754 4.642 4.642 0 0 0-1.735-1.163c-.677-.27-1.465-.406-2.363-.406h-3.674v-1.292h3.526c1.206 0 2.252.184 3.138.553.887.37 1.625.874 2.216 1.514a6.06 6.06 0 0 1 1.311 2.123 7.05 7.05 0 0 1 .424 2.4v.351c0 .8-.141 1.594-.424 2.382a6.59 6.59 0 0 1-1.293 2.16c-.578.64-1.317 1.157-2.215 1.55-.886.382-1.939.573-3.157.573h-3.526Zm-1.034 0V14.142h1.403v13.606h-1.403Zm23.906.24c-1.169 0-2.184-.21-3.046-.628a6.273 6.273 0 0 1-2.141-1.662 7.308 7.308 0 0 1-1.274-2.252 7.215 7.215 0 0 1-.425-2.381v-.333c0-.824.142-1.643.425-2.455a6.938 6.938 0 0 1 1.31-2.234 6.289 6.289 0 0 1 2.16-1.587c.862-.407 1.859-.61 2.991-.61 1.145 0 2.142.203 2.991.61a6.27 6.27 0 0 1 2.16 1.587 6.68 6.68 0 0 1 1.292 2.234 7.12 7.12 0 0 1 .443 2.455v.351c0 .776-.141 1.57-.424 2.382a6.913 6.913 0 0 1-1.274 2.233 6.268 6.268 0 0 1-2.142 1.662c-.861.419-1.877.628-3.046.628Zm0-1.293c.862 0 1.631-.153 2.308-.461a5.14 5.14 0 0 0 1.717-1.292 5.998 5.998 0 0 0 1.071-1.865c.246-.69.369-1.41.369-2.16 0-.788-.123-1.526-.369-2.215a5.405 5.405 0 0 0-1.09-1.828 4.927 4.927 0 0 0-1.717-1.274c-.676-.308-1.44-.461-2.289-.461-.837 0-1.594.153-2.271.461a5.13 5.13 0 0 0-1.735 1.274 5.802 5.802 0 0 0-1.089 1.828 6.542 6.542 0 0 0-.369 2.215c0 .75.123 1.47.369 2.16.246.69.603 1.31 1.071 1.865a5.13 5.13 0 0 0 1.717 1.292c.689.308 1.458.461 2.307.461Zm19.167 1.293c-1.206 0-2.24-.21-3.102-.628-.849-.43-1.544-.99-2.086-1.68a7.054 7.054 0 0 1-1.163-2.234 8.136 8.136 0 0 1-.369-2.363v-.35c0-.825.123-1.644.369-2.456a6.812 6.812 0 0 1 1.182-2.234 5.8 5.8 0 0 1 2.067-1.587c.837-.407 1.828-.61 2.973-.61 1.156 0 2.153.203 2.99.61a5.042 5.042 0 0 1 2.031 1.716c.505.727.812 1.588.923 2.585h-1.421c-.099-.8-.357-1.465-.776-1.994a3.86 3.86 0 0 0-1.606-1.218c-.64-.271-1.354-.406-2.141-.406-.85 0-1.6.153-2.253.461a4.353 4.353 0 0 0-1.606 1.255 5.513 5.513 0 0 0-.978 1.847 7.185 7.185 0 0 0-.333 2.215c0 .75.105 1.47.314 2.16.222.69.554 1.31.997 1.865.443.541.997.972 1.662 1.292.664.308 1.44.461 2.326.461 1.231 0 2.264-.307 3.101-.923.837-.627 1.354-1.526 1.551-2.695h1.422a6.019 6.019 0 0 1-.96 2.51c-.505.74-1.188 1.324-2.05 1.755-.849.43-1.87.646-3.064.646Zm16.997 0c-1.132 0-2.086-.179-2.861-.536-.776-.369-1.367-.874-1.773-1.514-.394-.652-.59-1.384-.59-2.196h1.403c0 .517.123 1.003.369 1.458.258.443.664.806 1.218 1.09.566.27 1.311.405 2.234.405.849 0 1.551-.123 2.105-.369.566-.246.984-.578 1.255-.997.283-.418.425-.886.425-1.403 0-.652-.259-1.194-.776-1.624-.504-.444-1.267-.708-2.289-.794l-1.551-.148c-1.157-.098-2.08-.455-2.769-1.07-.677-.628-1.015-1.453-1.015-2.474 0-.776.184-1.459.554-2.05.369-.59.892-1.058 1.569-1.403.689-.344 1.514-.517 2.474-.517.972 0 1.803.179 2.492.536.702.344 1.237.824 1.606 1.44.369.615.554 1.329.554 2.141h-1.403a2.99 2.99 0 0 0-.332-1.384c-.222-.431-.573-.776-1.053-1.034-.48-.271-1.101-.406-1.864-.406-.726 0-1.33.123-1.81.369-.467.246-.818.572-1.052.978a2.74 2.74 0 0 0-.332 1.33c0 .603.215 1.113.646 1.532.431.418 1.052.658 1.865.72l1.55.147c.911.074 1.687.277 2.327.61.652.32 1.15.744 1.495 1.274.345.517.517 1.126.517 1.827 0 .788-.216 1.49-.646 2.105-.419.615-1.016 1.095-1.791 1.44-.775.345-1.692.517-2.751.517Z" />
    <defs>
        <clipPath id="a">
            <path fill="#fff" d="M16.02 12.524h160.895v15.147H16.02z" />
        </clipPath>
        <clipPath id="b">
            <path fill="#fff" d="M16.02 12.524h160.934v15.147H16.02z" />
        </clipPath>
        <clipPath id="c">
            <path fill="#fff" d="M16.02 12.524h160.895v15.147H16.02z" />
        </clipPath>
    </defs>
</svg>
