<svg width="314" height="131" viewBox="0 0 314 131" fill="none" xmlns="http://www.w3.org/2000/svg">
<path d="M0 65.3166H313.521V130.633H0V65.3166Z" fill="black"/>
<path fill-rule="evenodd" clip-rule="evenodd" d="M311.521 67.3166H2V128.633H311.521V67.3166ZM0 65.3166V130.633H313.521V65.3166H0Z" fill="white"/>
<path d="M0 0H313.521V65.3168H0V0Z" fill="white"/>
<g clip-path="url(#clip0_12_1719)">
<g clip-path="url(#clip1_12_1719)">
<g clip-path="url(#clip2_12_1719)">
<path d="M182.689 24.6085V20.3513H162.455L156.961 24.6085V30.4545L162.455 34.7117H180.089V40.7125H158.053V44.9654H178.833L184.328 40.7125V34.7117L178.833 30.4545H161.199V24.6085H182.689Z" fill="black"/>
<path d="M76.7794 20.3513H72.9195L58.7621 44.9654H63.6575L74.8583 25.498L86.0458 44.9654H90.9368L76.7794 20.3513Z" fill="black"/>
<path d="M118.864 20.3513H91.4964V24.6085H103.063V44.9654H107.297V24.6085H118.864V20.3513Z" fill="black"/>
<path d="M218.494 20.3513H191.131V24.6085H202.693V44.9654H206.932V24.6085H218.494V20.3513Z" fill="black"/>
<path d="M47.905 20.3513H26.0322V44.9654H47.905L53.3997 40.7081V24.6085L47.905 20.3513ZM30.2711 24.6085H49.1608V40.7125H30.2711V24.6085Z" fill="black"/>
<path d="M268.55 32.6583L266.1 28.4011V28.4055L261.469 20.3513H256.573L263.654 32.6583L256.573 44.9654H261.469L266.1 36.9156L268.55 32.6583Z" fill="black"/>
<path d="M275.512 32.6583L277.962 28.4011V28.4055L282.597 20.3513H287.488L280.411 32.6583L287.488 44.9654H282.597L277.962 36.9156L275.512 32.6583Z" fill="black"/>
<path d="M133.581 20.3513H137.441L151.598 44.9654H146.703L135.502 25.498L124.314 44.9654H119.423L133.581 20.3513Z" fill="black"/>
<path d="M233.211 20.3513H237.071L251.229 44.9654H246.338L235.132 25.498L223.949 44.9654H219.054L233.211 20.3513Z" fill="black"/>
</g>
</g>
</g>
<path d="M21.5282 106.754V105.074H26.3042C27.4882 105.074 28.5202 104.882 29.4002 104.498C30.2962 104.114 31.0482 103.594 31.6562 102.938C32.2642 102.266 32.7202 101.498 33.0242 100.634C33.3282 99.7702 33.4802 98.8502 33.4802 97.8742C33.4802 96.8662 33.3202 95.9302 33.0002 95.0662C32.6962 94.2022 32.2402 93.4422 31.6322 92.7862C31.0242 92.1302 30.2722 91.6262 29.3762 91.2742C28.4962 90.9222 27.4722 90.7462 26.3042 90.7462H21.5282V89.0662H26.1122C27.6802 89.0662 29.0402 89.3062 30.1922 89.7862C31.3442 90.2662 32.3042 90.9222 33.0722 91.7542C33.8402 92.5702 34.4082 93.4902 34.7762 94.5142C35.1442 95.5382 35.3282 96.5782 35.3282 97.6342V98.0902C35.3282 99.1302 35.1442 100.162 34.7762 101.186C34.4082 102.21 33.8482 103.146 33.0962 103.994C32.3442 104.826 31.3842 105.498 30.2162 106.01C29.0642 106.506 27.6962 106.754 26.1122 106.754H21.5282ZM20.1842 106.754V89.0662H22.0082V106.754H20.1842Z" fill="white"/>
<path d="M51.2623 107.066C49.7423 107.066 48.4223 106.794 47.3023 106.25C46.1823 105.706 45.2543 104.986 44.5183 104.09C43.7823 103.194 43.2303 102.218 42.8623 101.162C42.4943 100.106 42.3103 99.0742 42.3103 98.0662V97.6342C42.3103 96.5622 42.4943 95.4982 42.8623 94.4422C43.2463 93.3702 43.8143 92.4022 44.5663 91.5382C45.3183 90.6742 46.2543 89.9862 47.3743 89.4742C48.4943 88.9462 49.7903 88.6822 51.2623 88.6822C52.7503 88.6822 54.0463 88.9462 55.1503 89.4742C56.2703 89.9862 57.2063 90.6742 57.9583 91.5382C58.7103 92.4022 59.2703 93.3702 59.6383 94.4422C60.0223 95.4982 60.2143 96.5622 60.2143 97.6342V98.0902C60.2143 99.0982 60.0303 100.13 59.6623 101.186C59.3103 102.226 58.7583 103.194 58.0063 104.09C57.2703 104.986 56.3423 105.706 55.2223 106.25C54.1023 106.794 52.7823 107.066 51.2623 107.066ZM51.2623 105.386C52.3823 105.386 53.3823 105.186 54.2623 104.786C55.1423 104.37 55.8863 103.81 56.4943 103.106C57.1023 102.386 57.5663 101.578 57.8863 100.682C58.2063 99.7862 58.3663 98.8502 58.3663 97.8742C58.3663 96.8502 58.2063 95.8902 57.8863 94.9942C57.5663 94.0982 57.0943 93.3062 56.4703 92.6182C55.8623 91.9142 55.1183 91.3622 54.2383 90.9622C53.3583 90.5622 52.3663 90.3622 51.2623 90.3622C50.1743 90.3622 49.1903 90.5622 48.3103 90.9622C47.4303 91.3622 46.6783 91.9142 46.0543 92.6182C45.4463 93.3062 44.9743 94.0982 44.6383 94.9942C44.3183 95.8902 44.1583 96.8502 44.1583 97.8742C44.1583 98.8502 44.3183 99.7862 44.6383 100.682C44.9583 101.578 45.4223 102.386 46.0303 103.106C46.6383 103.81 47.3823 104.37 48.2623 104.786C49.1583 105.186 50.1583 105.386 51.2623 105.386Z" fill="white"/>
<path d="M76.1788 107.066C74.6108 107.066 73.2668 106.794 72.1468 106.25C71.0428 105.69 70.1388 104.962 69.4348 104.066C68.7468 103.17 68.2428 102.202 67.9228 101.162C67.6028 100.106 67.4428 99.0822 67.4428 98.0902V97.6342C67.4428 96.5622 67.6028 95.4982 67.9228 94.4422C68.2588 93.3702 68.7708 92.4022 69.4588 91.5382C70.1628 90.6742 71.0588 89.9862 72.1468 89.4742C73.2348 88.9462 74.5228 88.6822 76.0108 88.6822C77.5148 88.6822 78.8108 88.9462 79.8988 89.4742C81.0028 90.0022 81.8828 90.7462 82.5388 91.7062C83.1948 92.6502 83.5948 93.7702 83.7388 95.0662H81.8908C81.7628 94.0262 81.4268 93.1622 80.8828 92.4742C80.3388 91.7702 79.6428 91.2422 78.7948 90.8902C77.9628 90.5382 77.0348 90.3622 76.0108 90.3622C74.9068 90.3622 73.9308 90.5622 73.0828 90.9622C72.2508 91.3462 71.5548 91.8902 70.9948 92.5942C70.4348 93.2822 70.0108 94.0822 69.7228 94.9942C69.4348 95.8902 69.2908 96.8502 69.2908 97.8742C69.2908 98.8502 69.4268 99.7862 69.6988 100.682C69.9868 101.578 70.4188 102.386 70.9948 103.106C71.5708 103.81 72.2908 104.37 73.1548 104.786C74.0188 105.186 75.0268 105.386 76.1788 105.386C77.7788 105.386 79.1228 104.986 80.2108 104.186C81.2988 103.37 81.9708 102.202 82.2268 100.682H84.0748C83.8988 101.882 83.4828 102.97 82.8268 103.946C82.1708 104.906 81.2828 105.666 80.1628 106.226C79.0588 106.786 77.7308 107.066 76.1788 107.066Z" fill="white"/>
<path d="M98.9055 107.066C97.3055 107.066 95.9775 106.762 94.9215 106.154C93.8655 105.546 93.0735 104.698 92.5455 103.61C92.0175 102.506 91.7535 101.242 91.7535 99.8182V89.1382H93.5775V100.034C93.5775 101.106 93.7695 102.042 94.1535 102.842C94.5535 103.642 95.1455 104.266 95.9295 104.714C96.7295 105.162 97.7215 105.386 98.9055 105.386C100.073 105.386 101.049 105.17 101.833 104.738C102.617 104.29 103.209 103.666 103.609 102.866C104.009 102.05 104.209 101.106 104.209 100.034V89.1382H106.033V99.8182C106.033 101.242 105.769 102.506 105.241 103.61C104.713 104.698 103.921 105.546 102.865 106.154C101.825 106.762 100.505 107.066 98.9055 107.066Z" fill="white"/>
<path d="M115.488 106.658V89.1382H117.864L123.384 101.258H123.816L129.312 89.1382H131.736V106.658H129.912V91.1782L130.056 91.2022L124.728 102.962H122.328L116.976 91.2022L117.168 91.1782V106.658H115.488Z" fill="white"/>
<path d="M141.534 106.658V89.1382H143.358V106.658H141.534ZM142.926 106.658V105.002H151.686V106.658H142.926ZM142.926 98.5702V96.9382H150.87V98.5702H142.926ZM142.926 90.7942V89.1382H151.422V90.7942H142.926Z" fill="white"/>
<path d="M160.315 106.658V89.1382H163.363L172.963 105.002H173.731L173.251 105.386V89.1382H175.003V106.658H171.931L162.331 90.7942H161.563L162.043 90.4102V106.658H160.315Z" fill="white"/>
<path d="M188.199 106.658V90.3382H190.023V106.658H188.199ZM182.727 90.7942V89.1382H195.495V90.7942H182.727Z" fill="white"/>
<path d="M200.011 106.658L206.467 89.1382H209.731L216.403 106.658H214.531L208.315 90.2902L209.299 90.7942H206.779L207.811 90.2902L201.835 106.658H200.011ZM203.467 101.09L204.067 99.4342H212.203L212.827 101.09H203.467Z" fill="white"/>
<path d="M226.394 106.658V90.3382H228.218V106.658H226.394ZM220.922 90.7942V89.1382H233.69V90.7942H220.922Z" fill="white"/>
<path d="M241.463 106.658V89.1382H243.287V106.658H241.463Z" fill="white"/>
<path d="M260.798 107.066C259.278 107.066 257.958 106.794 256.838 106.25C255.718 105.706 254.79 104.986 254.054 104.09C253.318 103.194 252.766 102.218 252.398 101.162C252.03 100.106 251.846 99.0742 251.846 98.0662V97.6342C251.846 96.5622 252.03 95.4982 252.398 94.4422C252.782 93.3702 253.35 92.4022 254.102 91.5382C254.854 90.6742 255.79 89.9862 256.91 89.4742C258.03 88.9462 259.326 88.6822 260.798 88.6822C262.286 88.6822 263.582 88.9462 264.686 89.4742C265.806 89.9862 266.742 90.6742 267.494 91.5382C268.246 92.4022 268.806 93.3702 269.174 94.4422C269.558 95.4982 269.75 96.5622 269.75 97.6342V98.0902C269.75 99.0982 269.566 100.13 269.198 101.186C268.846 102.226 268.294 103.194 267.542 104.09C266.806 104.986 265.878 105.706 264.758 106.25C263.638 106.794 262.318 107.066 260.798 107.066ZM260.798 105.386C261.918 105.386 262.918 105.186 263.798 104.786C264.678 104.37 265.422 103.81 266.03 103.106C266.638 102.386 267.102 101.578 267.422 100.682C267.742 99.7862 267.902 98.8502 267.902 97.8742C267.902 96.8502 267.742 95.8902 267.422 94.9942C267.102 94.0982 266.63 93.3062 266.006 92.6182C265.398 91.9142 264.654 91.3622 263.774 90.9622C262.894 90.5622 261.902 90.3622 260.798 90.3622C259.71 90.3622 258.726 90.5622 257.846 90.9622C256.966 91.3622 256.214 91.9142 255.59 92.6182C254.982 93.3062 254.51 94.0982 254.174 94.9942C253.854 95.8902 253.694 96.8502 253.694 97.8742C253.694 98.8502 253.854 99.7862 254.174 100.682C254.494 101.578 254.958 102.386 255.566 103.106C256.174 103.81 256.918 104.37 257.798 104.786C258.694 105.186 259.694 105.386 260.798 105.386Z" fill="white"/>
<path d="M278.251 106.658V89.1382H281.299L290.899 105.002H291.667L291.187 105.386V89.1382H292.939V106.658H289.867L280.267 90.7942H279.499L279.979 90.4102V106.658H278.251Z" fill="white"/>
<defs>
<clipPath id="clip0_12_1719">
<rect width="261.456" height="24.614" fill="white" transform="translate(26.0322 20.3513)"/>
</clipPath>
<clipPath id="clip1_12_1719">
<rect width="261.519" height="24.614" fill="white" transform="translate(26.0322 20.3513)"/>
</clipPath>
<clipPath id="clip2_12_1719">
<rect width="261.456" height="24.614" fill="white" transform="translate(26.0322 20.3513)"/>
</clipPath>
</defs>
</svg>
