<svg width="564" height="53" viewBox="0 0 564 53" fill="none" xmlns="http://www.w3.org/2000/svg">
<path d="M0 0.00012207H250.816V52.2536H0V0.00012207Z" fill="white"/>
<g clip-path="url(#clip0_12_1721)">
<g clip-path="url(#clip1_12_1721)">
<g clip-path="url(#clip2_12_1721)">
<path d="M146.151 19.687V16.2812H129.964L125.569 19.687V24.3638L129.964 27.7695H144.072V32.5702H126.443V35.9724H143.067L147.463 32.5702V27.7695L143.067 24.3638H128.96V19.687H146.151Z" fill="black"/>
<path d="M61.4237 16.2812H58.3358L47.0099 35.9724H50.9262L59.8868 20.3986L68.8369 35.9724H72.7496L61.4237 16.2812Z" fill="black"/>
<path d="M95.0913 16.2812H73.1973V19.687H82.4505V35.9724H85.8381V19.687H95.0913V16.2812Z" fill="black"/>
<path d="M174.796 16.2812H152.905V19.687H162.155V35.9724H165.546V19.687H174.796V16.2812Z" fill="black"/>
<path d="M38.3242 16.2812H20.826V35.9724H38.3242L42.7199 32.5667V19.687L38.3242 16.2812ZM24.2171 19.687H39.3289V32.5702H24.2171V19.687Z" fill="black"/>
<path d="M214.84 26.1268L212.88 22.7211V22.7246L209.175 16.2812H205.259L210.924 26.1268L205.259 35.9724H209.175L212.88 29.5326L214.84 26.1268Z" fill="black"/>
<path d="M220.41 26.1268L222.369 22.7211V22.7246L226.078 16.2812H229.991L224.329 26.1268L229.991 35.9724H226.078L222.369 29.5326L220.41 26.1268Z" fill="black"/>
<path d="M106.865 16.2812H109.953L121.279 35.9724H117.362L108.402 20.3986L99.4517 35.9724H95.5389L106.865 16.2812Z" fill="black"/>
<path d="M186.569 16.2812H189.657L200.983 35.9724H197.07L188.106 20.3986L179.16 35.9724H175.243L186.569 16.2812Z" fill="black"/>
</g>
</g>
</g>
<path d="M250.817 0.000183105H563.231V52.2536H250.817V0.000183105Z" fill="black"/>
<path fill-rule="evenodd" clip-rule="evenodd" d="M561.231 2.00018H252.817V50.2536H561.231V2.00018ZM250.817 0.000183105V52.2536H563.231V0.000183105H250.817Z" fill="white"/>
<path d="M272.275 36.0681V34.3881H277.051C278.235 34.3881 279.267 34.1961 280.147 33.8121C281.043 33.4281 281.795 32.9081 282.403 32.2521C283.011 31.5801 283.467 30.8121 283.771 29.9481C284.075 29.0841 284.227 28.1641 284.227 27.1881C284.227 26.1801 284.067 25.2441 283.747 24.3801C283.443 23.5161 282.987 22.7561 282.379 22.1001C281.771 21.4441 281.019 20.9401 280.123 20.5881C279.243 20.2361 278.219 20.0601 277.051 20.0601H272.275V18.3801H276.859C278.427 18.3801 279.787 18.6201 280.939 19.1001C282.091 19.5801 283.051 20.2361 283.819 21.0681C284.587 21.8841 285.155 22.8041 285.523 23.8281C285.891 24.8521 286.075 25.8921 286.075 26.9481V27.4041C286.075 28.4441 285.891 29.4761 285.523 30.5001C285.155 31.5241 284.595 32.4601 283.843 33.3081C283.091 34.1401 282.131 34.8121 280.963 35.3241C279.811 35.8201 278.443 36.0681 276.859 36.0681H272.275ZM270.931 36.0681V18.3801H272.755V36.0681H270.931Z" fill="white"/>
<path d="M302.01 36.3801C300.49 36.3801 299.17 36.1081 298.05 35.5641C296.93 35.0201 296.002 34.3001 295.266 33.4041C294.53 32.5081 293.978 31.5321 293.61 30.4761C293.242 29.4201 293.058 28.3881 293.058 27.3801V26.9481C293.058 25.8761 293.242 24.8121 293.61 23.7561C293.994 22.6841 294.562 21.7161 295.314 20.8521C296.066 19.9881 297.002 19.3001 298.122 18.7881C299.242 18.2601 300.538 17.9961 302.01 17.9961C303.498 17.9961 304.794 18.2601 305.898 18.7881C307.018 19.3001 307.954 19.9881 308.706 20.8521C309.458 21.7161 310.018 22.6841 310.386 23.7561C310.77 24.8121 310.962 25.8761 310.962 26.9481V27.4041C310.962 28.4121 310.778 29.4441 310.41 30.5001C310.058 31.5401 309.506 32.5081 308.754 33.4041C308.018 34.3001 307.09 35.0201 305.97 35.5641C304.85 36.1081 303.53 36.3801 302.01 36.3801ZM302.01 34.7001C303.13 34.7001 304.13 34.5001 305.01 34.1001C305.89 33.6841 306.634 33.1241 307.242 32.4201C307.85 31.7001 308.314 30.8921 308.634 29.9961C308.954 29.1001 309.114 28.1641 309.114 27.1881C309.114 26.1641 308.954 25.2041 308.634 24.3081C308.314 23.4121 307.842 22.6201 307.218 21.9321C306.61 21.2281 305.866 20.6761 304.986 20.2761C304.106 19.8761 303.114 19.6761 302.01 19.6761C300.922 19.6761 299.938 19.8761 299.058 20.2761C298.178 20.6761 297.426 21.2281 296.802 21.9321C296.194 22.6201 295.722 23.4121 295.386 24.3081C295.066 25.2041 294.906 26.1641 294.906 27.1881C294.906 28.1641 295.066 29.1001 295.386 29.9961C295.706 30.8921 296.17 31.7001 296.778 32.4201C297.386 33.1241 298.13 33.6841 299.01 34.1001C299.906 34.5001 300.906 34.7001 302.01 34.7001Z" fill="white"/>
<path d="M326.926 36.3801C325.358 36.3801 324.014 36.1081 322.894 35.5641C321.79 35.0041 320.886 34.2761 320.182 33.3801C319.494 32.4841 318.99 31.5161 318.67 30.4761C318.35 29.4201 318.19 28.3961 318.19 27.4041V26.9481C318.19 25.8761 318.35 24.8121 318.67 23.7561C319.006 22.6841 319.518 21.7161 320.206 20.8521C320.91 19.9881 321.806 19.3001 322.894 18.7881C323.982 18.2601 325.27 17.9961 326.758 17.9961C328.262 17.9961 329.558 18.2601 330.646 18.7881C331.75 19.3161 332.63 20.0601 333.286 21.0201C333.942 21.9641 334.342 23.0841 334.486 24.3801H332.638C332.51 23.3401 332.174 22.4761 331.63 21.7881C331.086 21.0841 330.39 20.5561 329.542 20.2041C328.71 19.8521 327.782 19.6761 326.758 19.6761C325.654 19.6761 324.678 19.8761 323.83 20.2761C322.998 20.6601 322.302 21.2041 321.742 21.9081C321.182 22.5961 320.758 23.3961 320.47 24.3081C320.182 25.2041 320.038 26.1641 320.038 27.1881C320.038 28.1641 320.174 29.1001 320.446 29.9961C320.734 30.8921 321.166 31.7001 321.742 32.4201C322.318 33.1241 323.038 33.6841 323.902 34.1001C324.766 34.5001 325.774 34.7001 326.926 34.7001C328.526 34.7001 329.87 34.3001 330.958 33.5001C332.046 32.6841 332.718 31.5161 332.974 29.9961H334.822C334.646 31.1961 334.23 32.2841 333.574 33.2601C332.918 34.2201 332.03 34.9801 330.91 35.5401C329.806 36.1001 328.478 36.3801 326.926 36.3801Z" fill="white"/>
<path d="M349.653 36.3801C348.053 36.3801 346.725 36.0761 345.669 35.4681C344.613 34.8601 343.821 34.0121 343.293 32.9241C342.765 31.8201 342.501 30.5561 342.501 29.1321V18.4521H344.325V29.3481C344.325 30.4201 344.517 31.3561 344.901 32.1561C345.301 32.9561 345.893 33.5801 346.677 34.0281C347.477 34.4761 348.469 34.7001 349.653 34.7001C350.821 34.7001 351.797 34.4841 352.581 34.0521C353.365 33.6041 353.957 32.9801 354.357 32.1801C354.757 31.3641 354.957 30.4201 354.957 29.3481V18.4521H356.781V29.1321C356.781 30.5561 356.517 31.8201 355.989 32.9241C355.461 34.0121 354.669 34.8601 353.613 35.4681C352.573 36.0761 351.253 36.3801 349.653 36.3801Z" fill="white"/>
<path d="M366.235 35.9721V18.4521H368.611L374.131 30.5721H374.563L380.059 18.4521H382.483V35.9721H380.659V20.4921L380.803 20.5161L375.475 32.2761H373.075L367.723 20.5161L367.915 20.4921V35.9721H366.235Z" fill="white"/>
<path d="M392.281 35.9721V18.4521H394.105V35.9721H392.281ZM393.673 35.9721V34.3161H402.433V35.9721H393.673ZM393.673 27.8841V26.2521H401.617V27.8841H393.673ZM393.673 20.1081V18.4521H402.169V20.1081H393.673Z" fill="white"/>
<path d="M411.062 35.9721V18.4521H414.11L423.71 34.3161H424.478L423.998 34.7001V18.4521H425.75V35.9721H422.678L413.078 20.1081H412.31L412.79 19.7241V35.9721H411.062Z" fill="white"/>
<path d="M438.947 35.9721V19.6521H440.771V35.9721H438.947ZM433.475 20.1081V18.4521H446.243V20.1081H433.475Z" fill="white"/>
<path d="M450.758 35.9721L457.214 18.4521H460.478L467.15 35.9721H465.278L459.062 19.6041L460.046 20.1081H457.526L458.558 19.6041L452.582 35.9721H450.758ZM454.214 30.4041L454.814 28.7481H462.95L463.574 30.4041H454.214Z" fill="white"/>
<path d="M477.141 35.9721V19.6521H478.965V35.9721H477.141ZM471.669 20.1081V18.4521H484.437V20.1081H471.669Z" fill="white"/>
<path d="M492.211 35.9721V18.4521H494.035V35.9721H492.211Z" fill="white"/>
<path d="M511.546 36.3801C510.026 36.3801 508.705 36.1081 507.585 35.5641C506.465 35.0201 505.537 34.3001 504.801 33.4041C504.065 32.5081 503.514 31.5321 503.146 30.4761C502.778 29.4201 502.594 28.3881 502.594 27.3801V26.9481C502.594 25.8761 502.778 24.8121 503.146 23.7561C503.53 22.6841 504.097 21.7161 504.849 20.8521C505.601 19.9881 506.538 19.3001 507.658 18.7881C508.778 18.2601 510.074 17.9961 511.546 17.9961C513.034 17.9961 514.33 18.2601 515.434 18.7881C516.554 19.3001 517.489 19.9881 518.241 20.8521C518.993 21.7161 519.554 22.6841 519.922 23.7561C520.306 24.8121 520.497 25.8761 520.497 26.9481V27.4041C520.497 28.4121 520.313 29.4441 519.945 30.5001C519.593 31.5401 519.041 32.5081 518.289 33.4041C517.553 34.3001 516.625 35.0201 515.505 35.5641C514.385 36.1081 513.066 36.3801 511.546 36.3801ZM511.546 34.7001C512.666 34.7001 513.666 34.5001 514.546 34.1001C515.426 33.6841 516.169 33.1241 516.777 32.4201C517.385 31.7001 517.849 30.8921 518.169 29.9961C518.489 29.1001 518.65 28.1641 518.65 27.1881C518.65 26.1641 518.489 25.2041 518.169 24.3081C517.849 23.4121 517.377 22.6201 516.753 21.9321C516.145 21.2281 515.401 20.6761 514.521 20.2761C513.641 19.8761 512.65 19.6761 511.546 19.6761C510.458 19.6761 509.474 19.8761 508.594 20.2761C507.714 20.6761 506.961 21.2281 506.337 21.9321C505.729 22.6201 505.258 23.4121 504.922 24.3081C504.602 25.2041 504.441 26.1641 504.441 27.1881C504.441 28.1641 504.602 29.1001 504.922 29.9961C505.242 30.8921 505.706 31.7001 506.314 32.4201C506.922 33.1241 507.666 33.6841 508.546 34.1001C509.442 34.5001 510.442 34.7001 511.546 34.7001Z" fill="white"/>
<path d="M528.998 35.9721V18.4521H532.046L541.646 34.3161H542.414L541.934 34.7001V18.4521H543.686V35.9721H540.614L531.014 20.1081H530.246L530.726 19.7241V35.9721H528.998Z" fill="white"/>
<defs>
<clipPath id="clip0_12_1721">
<rect width="209.165" height="19.6912" fill="white" transform="translate(20.826 16.2812)"/>
</clipPath>
<clipPath id="clip1_12_1721">
<rect width="209.215" height="19.6912" fill="white" transform="translate(20.826 16.2812)"/>
</clipPath>
<clipPath id="clip2_12_1721">
<rect width="209.165" height="19.6912" fill="white" transform="translate(20.826 16.2812)"/>
</clipPath>
</defs>
</svg>
