<svg width="314" height="131" viewBox="0 0 314 131" fill="none" xmlns="http://www.w3.org/2000/svg">
<path fill-rule="evenodd" clip-rule="evenodd" d="M311.521 67.3167H2V128.633H311.521V67.3167ZM0 65.3167V130.633H313.521V65.3167H0Z" fill="black"/>
<path d="M0.00195312 0H313.523V65.3168H0.00195312V0Z" fill="black"/>
<g clip-path="url(#clip0_12_1718)">
<g clip-path="url(#clip1_12_1718)">
<g clip-path="url(#clip2_12_1718)">
<path d="M182.69 24.6085V20.3513H162.456L156.962 24.6085V30.4545L162.456 34.7117H180.09V40.7125H158.054V44.9654H178.834L184.329 40.7125V34.7117L178.834 30.4545H161.2V24.6085H182.69Z" fill="white"/>
<path d="M76.7804 20.3513H72.9205L58.7631 44.9654H63.6585L74.8592 25.498L86.0468 44.9654H90.9378L76.7804 20.3513Z" fill="white"/>
<path d="M118.865 20.3513H91.4974V24.6085H103.064V44.9654H107.298V24.6085H118.865V20.3513Z" fill="white"/>
<path d="M218.495 20.3513H191.132V24.6085H202.694V44.9654H206.933V24.6085H218.495V20.3513Z" fill="white"/>
<path d="M47.906 20.3513H26.0332V44.9654H47.906L53.4006 40.7081V24.6085L47.906 20.3513ZM30.272 24.6085H49.1618V40.7125H30.272V24.6085Z" fill="white"/>
<path d="M268.551 32.6583L266.101 28.4011V28.4055L261.47 20.3513H256.574L263.655 32.6583L256.574 44.9654H261.47L266.101 36.9156L268.551 32.6583Z" fill="white"/>
<path d="M275.513 32.6583L277.963 28.4011V28.4055L282.598 20.3513H287.489L280.412 32.6583L287.489 44.9654H282.598L277.963 36.9156L275.513 32.6583Z" fill="white"/>
<path d="M133.582 20.3513H137.442L151.599 44.9654H146.704L135.503 25.498L124.315 44.9654H119.424L133.582 20.3513Z" fill="white"/>
<path d="M233.212 20.3513H237.072L251.23 44.9654H246.339L235.133 25.498L223.95 44.9654H219.055L233.212 20.3513Z" fill="white"/>
</g>
</g>
</g>
<path d="M21.5292 106.754V105.074H26.3052C27.4892 105.074 28.5212 104.882 29.4012 104.498C30.2972 104.114 31.0492 103.594 31.6572 102.938C32.2652 102.266 32.7212 101.498 33.0252 100.634C33.3292 99.7702 33.4812 98.8502 33.4812 97.8742C33.4812 96.8662 33.3212 95.9302 33.0012 95.0662C32.6972 94.2022 32.2411 93.4422 31.6332 92.7862C31.0252 92.1302 30.2732 91.6262 29.3772 91.2742C28.4972 90.9222 27.4732 90.7462 26.3052 90.7462H21.5292V89.0662H26.1132C27.6812 89.0662 29.0412 89.3062 30.1932 89.7862C31.3452 90.2662 32.3052 90.9222 33.0732 91.7542C33.8412 92.5702 34.4092 93.4902 34.7772 94.5142C35.1452 95.5382 35.3292 96.5782 35.3292 97.6342V98.0902C35.3292 99.1302 35.1452 100.162 34.7772 101.186C34.4092 102.21 33.8492 103.146 33.0972 103.994C32.3452 104.826 31.3851 105.498 30.2171 106.01C29.0651 106.506 27.6972 106.754 26.1132 106.754H21.5292ZM20.1852 106.754V89.0662H22.0092V106.754H20.1852Z" fill="black"/>
<path d="M51.2633 107.066C49.7433 107.066 48.4233 106.794 47.3033 106.25C46.1833 105.706 45.2553 104.986 44.5193 104.09C43.7833 103.194 43.2313 102.218 42.8633 101.162C42.4953 100.106 42.3113 99.0742 42.3113 98.0662V97.6342C42.3113 96.5622 42.4953 95.4982 42.8633 94.4422C43.2473 93.3702 43.8153 92.4022 44.5673 91.5382C45.3193 90.6742 46.2553 89.9862 47.3753 89.4742C48.4953 88.9462 49.7913 88.6822 51.2633 88.6822C52.7513 88.6822 54.0473 88.9462 55.1513 89.4742C56.2713 89.9862 57.2073 90.6742 57.9593 91.5382C58.7113 92.4022 59.2713 93.3702 59.6393 94.4422C60.0233 95.4982 60.2153 96.5622 60.2153 97.6342V98.0902C60.2153 99.0982 60.0313 100.13 59.6633 101.186C59.3113 102.226 58.7593 103.194 58.0073 104.09C57.2713 104.986 56.3433 105.706 55.2233 106.25C54.1033 106.794 52.7833 107.066 51.2633 107.066ZM51.2633 105.386C52.3833 105.386 53.3833 105.186 54.2633 104.786C55.1433 104.37 55.8873 103.81 56.4953 103.106C57.1033 102.386 57.5673 101.578 57.8873 100.682C58.2073 99.7862 58.3673 98.8502 58.3673 97.8742C58.3673 96.8502 58.2073 95.8902 57.8873 94.9942C57.5673 94.0982 57.0953 93.3062 56.4713 92.6182C55.8633 91.9142 55.1193 91.3622 54.2393 90.9622C53.3593 90.5622 52.3673 90.3622 51.2633 90.3622C50.1753 90.3622 49.1913 90.5622 48.3113 90.9622C47.4313 91.3622 46.6793 91.9142 46.0553 92.6182C45.4473 93.3062 44.9753 94.0982 44.6393 94.9942C44.3193 95.8902 44.1593 96.8502 44.1593 97.8742C44.1593 98.8502 44.3193 99.7862 44.6393 100.682C44.9593 101.578 45.4233 102.386 46.0313 103.106C46.6393 103.81 47.3833 104.37 48.2633 104.786C49.1593 105.186 50.1593 105.386 51.2633 105.386Z" fill="black"/>
<path d="M76.1798 107.066C74.6118 107.066 73.2678 106.794 72.1478 106.25C71.0438 105.69 70.1398 104.962 69.4358 104.066C68.7478 103.17 68.2438 102.202 67.9238 101.162C67.6038 100.106 67.4438 99.0822 67.4438 98.0902V97.6342C67.4438 96.5622 67.6038 95.4982 67.9238 94.4422C68.2598 93.3702 68.7718 92.4022 69.4598 91.5382C70.1638 90.6742 71.0598 89.9862 72.1478 89.4742C73.2358 88.9462 74.5238 88.6822 76.0118 88.6822C77.5158 88.6822 78.8118 88.9462 79.8998 89.4742C81.0038 90.0022 81.8838 90.7462 82.5398 91.7062C83.1958 92.6502 83.5958 93.7702 83.7398 95.0662H81.8918C81.7638 94.0262 81.4278 93.1622 80.8838 92.4742C80.3398 91.7702 79.6438 91.2422 78.7958 90.8902C77.9638 90.5382 77.0358 90.3622 76.0118 90.3622C74.9078 90.3622 73.9318 90.5622 73.0838 90.9622C72.2518 91.3462 71.5558 91.8902 70.9958 92.5942C70.4358 93.2822 70.0118 94.0822 69.7238 94.9942C69.4358 95.8902 69.2918 96.8502 69.2918 97.8742C69.2918 98.8502 69.4278 99.7862 69.6998 100.682C69.9878 101.578 70.4198 102.386 70.9958 103.106C71.5718 103.81 72.2918 104.37 73.1558 104.786C74.0198 105.186 75.0278 105.386 76.1798 105.386C77.7798 105.386 79.1238 104.986 80.2118 104.186C81.2998 103.37 81.9718 102.202 82.2278 100.682H84.0758C83.8998 101.882 83.4838 102.97 82.8278 103.946C82.1718 104.906 81.2838 105.666 80.1638 106.226C79.0598 106.786 77.7318 107.066 76.1798 107.066Z" fill="black"/>
<path d="M98.9065 107.066C97.3065 107.066 95.9785 106.762 94.9225 106.154C93.8665 105.546 93.0745 104.698 92.5465 103.61C92.0185 102.506 91.7545 101.242 91.7545 99.8182V89.1382H93.5785V100.034C93.5785 101.106 93.7705 102.042 94.1545 102.842C94.5545 103.642 95.1465 104.266 95.9305 104.714C96.7305 105.162 97.7225 105.386 98.9065 105.386C100.074 105.386 101.05 105.17 101.834 104.738C102.618 104.29 103.21 103.666 103.61 102.866C104.01 102.05 104.21 101.106 104.21 100.034V89.1382H106.034V99.8182C106.034 101.242 105.77 102.506 105.242 103.61C104.714 104.698 103.922 105.546 102.866 106.154C101.826 106.762 100.506 107.066 98.9065 107.066Z" fill="black"/>
<path d="M115.489 106.658V89.1382H117.865L123.385 101.258H123.817L129.313 89.1382H131.737V106.658H129.913V91.1782L130.057 91.2022L124.729 102.962H122.329L116.977 91.2022L117.169 91.1782V106.658H115.489Z" fill="black"/>
<path d="M141.535 106.658V89.1382H143.359V106.658H141.535ZM142.927 106.658V105.002H151.687V106.658H142.927ZM142.927 98.5702V96.9382H150.871V98.5702H142.927ZM142.927 90.7942V89.1382H151.423V90.7942H142.927Z" fill="black"/>
<path d="M160.316 106.658V89.1382H163.364L172.964 105.002H173.732L173.252 105.386V89.1382H175.004V106.658H171.932L162.332 90.7942H161.564L162.044 90.4102V106.658H160.316Z" fill="black"/>
<path d="M188.2 106.658V90.3382H190.024V106.658H188.2ZM182.728 90.7942V89.1382H195.496V90.7942H182.728Z" fill="black"/>
<path d="M200.012 106.658L206.468 89.1382H209.732L216.404 106.658H214.532L208.316 90.2902L209.3 90.7942H206.78L207.812 90.2902L201.836 106.658H200.012ZM203.468 101.09L204.068 99.4342H212.204L212.828 101.09H203.468Z" fill="black"/>
<path d="M226.395 106.658V90.3382H228.219V106.658H226.395ZM220.923 90.7942V89.1382H233.691V90.7942H220.923Z" fill="black"/>
<path d="M241.464 106.658V89.1382H243.288V106.658H241.464Z" fill="black"/>
<path d="M260.799 107.066C259.279 107.066 257.959 106.794 256.839 106.25C255.719 105.706 254.791 104.986 254.055 104.09C253.319 103.194 252.767 102.218 252.399 101.162C252.031 100.106 251.847 99.0742 251.847 98.0662V97.6342C251.847 96.5622 252.031 95.4982 252.399 94.4422C252.783 93.3702 253.351 92.4022 254.103 91.5382C254.855 90.6742 255.791 89.9862 256.911 89.4742C258.031 88.9462 259.327 88.6822 260.799 88.6822C262.287 88.6822 263.583 88.9462 264.687 89.4742C265.807 89.9862 266.743 90.6742 267.495 91.5382C268.247 92.4022 268.807 93.3702 269.175 94.4422C269.559 95.4982 269.751 96.5622 269.751 97.6342V98.0902C269.751 99.0982 269.567 100.13 269.199 101.186C268.847 102.226 268.295 103.194 267.543 104.09C266.807 104.986 265.879 105.706 264.759 106.25C263.639 106.794 262.319 107.066 260.799 107.066ZM260.799 105.386C261.919 105.386 262.919 105.186 263.799 104.786C264.679 104.37 265.423 103.81 266.031 103.106C266.639 102.386 267.103 101.578 267.423 100.682C267.743 99.7862 267.903 98.8502 267.903 97.8742C267.903 96.8502 267.743 95.8902 267.423 94.9942C267.103 94.0982 266.631 93.3062 266.007 92.6182C265.399 91.9142 264.655 91.3622 263.775 90.9622C262.895 90.5622 261.903 90.3622 260.799 90.3622C259.711 90.3622 258.727 90.5622 257.847 90.9622C256.967 91.3622 256.215 91.9142 255.591 92.6182C254.983 93.3062 254.511 94.0982 254.175 94.9942C253.855 95.8902 253.695 96.8502 253.695 97.8742C253.695 98.8502 253.855 99.7862 254.175 100.682C254.495 101.578 254.959 102.386 255.567 103.106C256.175 103.81 256.919 104.37 257.799 104.786C258.695 105.186 259.695 105.386 260.799 105.386Z" fill="black"/>
<path d="M278.252 106.658V89.1382H281.3L290.9 105.002H291.668L291.188 105.386V89.1382H292.94V106.658H289.868L280.268 90.7942H279.5L279.98 90.4102V106.658H278.252Z" fill="black"/>
<defs>
<clipPath id="clip0_12_1718">
<rect width="261.456" height="24.614" fill="white" transform="translate(26.0332 20.3513)"/>
</clipPath>
<clipPath id="clip1_12_1718">
<rect width="261.519" height="24.614" fill="white" transform="translate(26.0332 20.3513)"/>
</clipPath>
<clipPath id="clip2_12_1718">
<rect width="261.456" height="24.614" fill="white" transform="translate(26.0332 20.3513)"/>
</clipPath>
</defs>
</svg>
