<svg width="20" height="20" viewBox="0 0 20 20" fill="none" xmlns="http://www.w3.org/2000/svg">
<path fill-rule="evenodd" clip-rule="evenodd" d="M14.875 4.5C14.875 4.15482 15.1548 3.875 15.5 3.875C15.8452 3.875 16.125 4.15482 16.125 4.5C16.125 4.84518 15.8452 5.125 15.5 5.125C15.1548 5.125 14.875 4.84518 14.875 4.5ZM15.5 2.125C14.1883 2.125 13.125 3.18832 13.125 4.5C13.125 4.83495 13.1943 5.15371 13.3194 5.4427L3.875 14.8871V13H2.125V17.875H7V16.125H5.11202L14.5567 6.6803C14.8459 6.80557 15.1648 6.875 15.5 6.875C16.8117 6.875 17.875 5.81168 17.875 4.5C17.875 3.18832 16.8117 2.125 15.5 2.125ZM17.8751 17.875V9.88757L9.8877 17.875H17.8751ZM16.1251 16.125H14.1126L16.1251 14.1124V16.125Z" fill="#ffffff"/>
</svg>
