<svg width="696" height="240" viewBox="0 0 696 240" fill="none" xmlns="http://www.w3.org/2000/svg">
<g clip-path="url(#clip0_617_824)">
<g clip-path="url(#clip1_617_824)">
<path d="M0 5.99999C0 2.68629 2.68629 0 6 0H690C693.314 0 696 2.68629 696 6V234C696 237.314 693.314 240 690 240H5.99999C2.68628 240 0 237.314 0 234V5.99999Z" fill="#F7F7F7"/>
<path d="M327.398 125V113.625H328.875V125H327.398ZM331.383 125V116.828H332.672L332.727 117.883H332.773C333.065 117.513 333.417 117.219 333.828 117C334.24 116.781 334.698 116.672 335.203 116.672C335.75 116.672 336.221 116.781 336.617 117C337.018 117.219 337.323 117.573 337.531 118.062H337.57C337.914 117.573 338.292 117.219 338.703 117C339.12 116.781 339.599 116.672 340.141 116.672C340.984 116.672 341.643 116.906 342.117 117.375C342.596 117.844 342.836 118.625 342.836 119.719V125H341.406V119.703C341.406 119.047 341.266 118.578 340.984 118.297C340.708 118.016 340.312 117.875 339.797 117.875C339.349 117.875 338.956 118 338.617 118.25C338.284 118.5 338.018 118.823 337.82 119.219V125H336.398V119.703C336.398 119.047 336.258 118.578 335.977 118.297C335.695 118.016 335.297 117.875 334.781 117.875C334.333 117.875 333.94 118 333.602 118.25C333.268 118.5 333.003 118.823 332.805 119.219V125H331.383ZM344.602 122.594C344.602 121.771 344.927 121.128 345.578 120.664C346.234 120.201 347.07 119.969 348.086 119.969H349.945V119.398C349.945 118.904 349.818 118.503 349.562 118.195C349.307 117.888 348.867 117.734 348.242 117.734C347.617 117.734 347.169 117.865 346.898 118.125C346.633 118.38 346.5 118.677 346.5 119.016V119.062H345.078V119.016C345.078 118.37 345.365 117.807 345.938 117.328C346.516 116.844 347.297 116.602 348.281 116.602C349.26 116.602 350.018 116.836 350.555 117.305C351.096 117.768 351.367 118.466 351.367 119.398V123.125C351.367 123.464 351.393 123.784 351.445 124.086C351.497 124.383 351.57 124.646 351.664 124.875V125H350.289C350.216 124.87 350.148 124.701 350.086 124.492C350.029 124.284 349.992 124.076 349.977 123.867C349.784 124.206 349.471 124.505 349.039 124.766C348.612 125.026 348.062 125.156 347.391 125.156C346.609 125.156 345.948 124.938 345.406 124.5C344.87 124.057 344.602 123.422 344.602 122.594ZM346.023 122.523C346.023 122.992 346.159 123.359 346.43 123.625C346.701 123.885 347.122 124.016 347.695 124.016C348.268 124.016 348.786 123.818 349.25 123.422C349.714 123.026 349.945 122.607 349.945 122.164V120.992H348.242C347.513 120.992 346.961 121.13 346.586 121.406C346.211 121.682 346.023 122.055 346.023 122.523ZM353.43 127.234L354.32 126.156C354.549 126.417 354.87 126.648 355.281 126.852C355.698 127.06 356.167 127.164 356.688 127.164C357.385 127.164 357.938 126.961 358.344 126.555C358.75 126.154 358.953 125.583 358.953 124.844V124.031C358.719 124.37 358.398 124.643 357.992 124.852C357.591 125.055 357.104 125.156 356.531 125.156C355.5 125.156 354.674 124.768 354.055 123.992C353.435 123.216 353.125 122.232 353.125 121.039V120.789C353.125 119.596 353.435 118.612 354.055 117.836C354.674 117.06 355.5 116.672 356.531 116.672C357.104 116.672 357.604 116.792 358.031 117.031C358.458 117.271 358.776 117.557 358.984 117.891H359.031L359.094 116.828H360.383V124.844C360.383 125.99 360.044 126.87 359.367 127.484C358.69 128.099 357.81 128.406 356.727 128.406C356.055 128.406 355.435 128.294 354.867 128.07C354.299 127.852 353.82 127.573 353.43 127.234ZM354.578 121.039C354.578 121.872 354.76 122.573 355.125 123.141C355.49 123.703 356.062 123.984 356.844 123.984C357.365 123.984 357.807 123.841 358.172 123.555C358.536 123.268 358.797 122.943 358.953 122.578V119.242C358.797 118.878 358.536 118.555 358.172 118.273C357.807 117.987 357.365 117.844 356.844 117.844C356.062 117.844 355.49 118.128 355.125 118.695C354.76 119.258 354.578 119.956 354.578 120.789V121.039ZM362.188 121.039V120.789C362.188 119.555 362.523 118.549 363.195 117.773C363.872 116.992 364.766 116.602 365.875 116.602C366.984 116.602 367.839 116.966 368.438 117.695C369.036 118.419 369.336 119.404 369.336 120.648V121.234H363.055V120.094H367.898V119.914C367.898 119.32 367.729 118.815 367.391 118.398C367.057 117.977 366.57 117.766 365.93 117.766C365.164 117.766 364.591 118.057 364.211 118.641C363.831 119.224 363.641 119.94 363.641 120.789V121.039C363.641 121.888 363.841 122.604 364.242 123.188C364.643 123.771 365.263 124.062 366.102 124.062C366.622 124.062 367.068 123.951 367.438 123.727C367.812 123.497 368.117 123.227 368.352 122.914L369.273 123.641C369.013 124.031 368.612 124.396 368.07 124.734C367.534 125.068 366.878 125.234 366.102 125.234C364.836 125.234 363.867 124.844 363.195 124.062C362.523 123.281 362.188 122.273 362.188 121.039Z" fill="#6B6F73"/>
</g>
</g>
<defs>
<clipPath id="clip0_617_824">
<rect width="696" height="240" fill="white"/>
</clipPath>
<clipPath id="clip1_617_824">
<path d="M0 5.99999C0 2.68629 2.68629 0 6 0H690C693.314 0 696 2.68629 696 6V234C696 237.314 693.314 240 690 240H5.99999C2.68628 240 0 237.314 0 234V5.99999Z" fill="white"/>
</clipPath>
</defs>
</svg>
