<svg width="22" height="16" viewBox="0 0 22 16" fill="none" xmlns="http://www.w3.org/2000/svg">
  <path
    d="M18.6361 1.33998C17.1907 0.70497 15.6648 0.254475 14.0973 0C13.8828 0.367934 13.6888 0.746489 13.5159 1.13408C11.8463 0.892656 10.1484 0.892656 8.47881 1.13408C8.30587 0.746529 8.1118 0.367978 7.8974 0C6.32897 0.256624 4.80205 0.708188 3.35518 1.3433C0.482757 5.42134 -0.29591 9.39809 0.0934235 13.3184C1.77558 14.511 3.6584 15.418 5.66003 16C6.11074 15.4183 6.50956 14.8012 6.85226 14.1553C6.20135 13.922 5.57311 13.6342 4.9748 13.2951C5.13227 13.1856 5.28627 13.0726 5.43508 12.9631C7.17601 13.7487 9.07613 14.156 11 14.156C12.9238 14.156 14.8239 13.7487 16.5648 12.9631C16.7154 13.0809 16.8694 13.1939 17.0251 13.2951C16.4257 13.6347 15.7963 13.9231 15.1442 14.1569C15.4865 14.8026 15.8853 15.4192 16.3364 16C18.3398 15.4204 20.224 14.5138 21.9065 13.3201C22.3633 8.77377 21.1261 4.83354 18.6361 1.33998ZM7.34541 10.9074C6.26047 10.9074 5.36414 9.96264 5.36414 8.80033C5.36414 7.63802 6.22932 6.68493 7.34195 6.68493C8.45458 6.68493 9.344 7.63802 9.32496 8.80033C9.30593 9.96264 8.45112 10.9074 7.34541 10.9074ZM14.6545 10.9074C13.5678 10.9074 12.675 9.96264 12.675 8.80033C12.675 7.63802 13.5401 6.68493 14.6545 6.68493C15.7689 6.68493 16.6514 7.63802 16.6323 8.80033C16.6133 9.96264 15.7602 10.9074 14.6545 10.9074Z"
    fill="#090909" />
</svg>
