<svg width="162" height="40" viewBox="0 0 162 40" fill="none" xmlns="http://www.w3.org/2000/svg">
    <path d="M0 0.00012207H68V40.0001H0V0.00012207Z" fill="white" />
    <g clip-path="url(#clip0_4_3336)">
        <g clip-path="url(#clip1_4_3336)">
            <path
                d="M29.4801 12.5239H16.02V27.671H29.4801L32.8614 25.0512V15.1438L29.4801 12.5239ZM18.6285 15.1438H30.2529V25.0539H18.6285V15.1438Z"
                fill="#090909" />
            <path
                d="M52.6942 15.1438V12.5239H40.2428L36.8615 15.1438V18.7412L40.2428 21.3611H51.0944V25.0539H37.5339V27.671H50.3216L53.7029 25.0539V21.3611L50.3216 18.7412H39.47V15.1438H52.6942Z"
                fill="#090909" />
        </g>
    </g>
    <path d="M69 1H160.846V38.9999H69V1Z" fill="#090909" stroke="white" stroke-width="2" />
    <path
        d="M84.3657 27.7476V26.4553H88.0395C88.9503 26.4553 89.7441 26.3076 90.4211 26.0122C91.1103 25.7168 91.6888 25.3168 92.1564 24.8122C92.6241 24.2953 92.9749 23.7045 93.2088 23.0399C93.4426 22.3753 93.5595 21.6676 93.5595 20.9168C93.5595 20.1414 93.4364 19.4214 93.1903 18.7568C92.9564 18.0922 92.6057 17.5076 92.138 17.003C91.6703 16.4984 91.0918 16.1107 90.4026 15.8399C89.7257 15.5691 88.938 15.4338 88.0395 15.4338H84.3657V14.1415H87.8918C89.098 14.1415 90.1441 14.3261 91.0303 14.6953C91.9164 15.0645 92.6549 15.5691 93.2457 16.2091C93.8364 16.8368 94.2734 17.5445 94.5564 18.3322C94.8395 19.1199 94.9811 19.9199 94.9811 20.7322V21.083C94.9811 21.883 94.8395 22.6768 94.5564 23.4645C94.2734 24.2522 93.8426 24.9722 93.2641 25.6245C92.6857 26.2645 91.9472 26.7814 91.0488 27.1753C90.1626 27.5568 89.1103 27.7476 87.8918 27.7476H84.3657ZM83.3318 27.7476V14.1415H84.7349V27.7476H83.3318Z"
        fill="white" />
    <path
        d="M107.238 27.9876C106.069 27.9876 105.053 27.7783 104.192 27.3599C103.33 26.9414 102.617 26.3876 102.05 25.6984C101.484 25.0091 101.06 24.2584 100.777 23.446C100.493 22.6337 100.352 21.8399 100.352 21.0645V20.7322C100.352 19.9076 100.493 19.0891 100.777 18.2768C101.072 17.4522 101.509 16.7076 102.087 16.043C102.666 15.3784 103.386 14.8491 104.247 14.4553C105.109 14.0491 106.106 13.8461 107.238 13.8461C108.383 13.8461 109.38 14.0491 110.229 14.4553C111.09 14.8491 111.81 15.3784 112.389 16.043C112.967 16.7076 113.398 17.4522 113.681 18.2768C113.976 19.0891 114.124 19.9076 114.124 20.7322V21.083C114.124 21.8584 113.983 22.6522 113.7 23.4645C113.429 24.2645 113.004 25.0091 112.426 25.6984C111.86 26.3876 111.146 26.9414 110.284 27.3599C109.423 27.7783 108.407 27.9876 107.238 27.9876ZM107.238 26.6953C108.1 26.6953 108.869 26.5414 109.546 26.2337C110.223 25.9137 110.795 25.483 111.263 24.9414C111.73 24.3876 112.087 23.766 112.333 23.0768C112.58 22.3876 112.703 21.6676 112.703 20.9168C112.703 20.1291 112.58 19.3907 112.333 18.7014C112.087 18.0122 111.724 17.403 111.244 16.8738C110.777 16.3322 110.204 15.9076 109.527 15.5999C108.85 15.2922 108.087 15.1384 107.238 15.1384C106.401 15.1384 105.644 15.2922 104.967 15.5999C104.29 15.9076 103.712 16.3322 103.232 16.8738C102.764 17.403 102.401 18.0122 102.143 18.7014C101.897 19.3907 101.773 20.1291 101.773 20.9168C101.773 21.6676 101.897 22.3876 102.143 23.0768C102.389 23.766 102.746 24.3876 103.213 24.9414C103.681 25.483 104.253 25.9137 104.93 26.2337C105.62 26.5414 106.389 26.6953 107.238 26.6953Z"
        fill="white" />
    <path
        d="M126.405 27.9876C125.198 27.9876 124.165 27.7783 123.303 27.3599C122.454 26.9291 121.758 26.3691 121.217 25.6799C120.688 24.9907 120.3 24.246 120.054 23.446C119.808 22.6337 119.685 21.8461 119.685 21.083V20.7322C119.685 19.9076 119.808 19.0891 120.054 18.2768C120.312 17.4522 120.706 16.7076 121.235 16.043C121.777 15.3784 122.466 14.8491 123.303 14.4553C124.14 14.0491 125.131 13.8461 126.275 13.8461C127.432 13.8461 128.429 14.0491 129.266 14.4553C130.115 14.8615 130.792 15.4338 131.297 16.1722C131.801 16.8984 132.109 17.7599 132.22 18.7568H130.798C130.7 17.9568 130.441 17.2922 130.023 16.763C129.605 16.2214 129.069 15.8153 128.417 15.5445C127.777 15.2738 127.063 15.1384 126.275 15.1384C125.426 15.1384 124.675 15.2922 124.023 15.5999C123.383 15.8953 122.848 16.3138 122.417 16.8553C121.986 17.3845 121.66 17.9999 121.438 18.7014C121.217 19.3907 121.106 20.1291 121.106 20.9168C121.106 21.6676 121.211 22.3876 121.42 23.0768C121.641 23.766 121.974 24.3876 122.417 24.9414C122.86 25.483 123.414 25.9137 124.078 26.2337C124.743 26.5414 125.518 26.6953 126.405 26.6953C127.635 26.6953 128.669 26.3876 129.506 25.7722C130.343 25.1445 130.86 24.246 131.057 23.0768H132.478C132.343 23.9999 132.023 24.8368 131.518 25.5876C131.014 26.326 130.331 26.9107 129.469 27.3414C128.62 27.7722 127.598 27.9876 126.405 27.9876Z"
        fill="white" />
    <path
        d="M143.402 27.9876C142.27 27.9876 141.316 27.8091 140.54 27.4522C139.765 27.083 139.174 26.5784 138.768 25.9384C138.374 25.286 138.177 24.5537 138.177 23.7414H139.58C139.58 24.2584 139.703 24.7445 139.95 25.1999C140.208 25.643 140.614 26.006 141.168 26.2891C141.734 26.5599 142.479 26.6953 143.402 26.6953C144.251 26.6953 144.953 26.5722 145.507 26.326C146.073 26.0799 146.491 25.7476 146.762 25.3291C147.045 24.9107 147.187 24.443 147.187 23.926C147.187 23.2737 146.928 22.7322 146.411 22.3014C145.907 21.8584 145.143 21.5937 144.122 21.5076L142.571 21.3599C141.414 21.2614 140.491 20.9045 139.802 20.2891C139.125 19.6614 138.787 18.8368 138.787 17.8153C138.787 17.0399 138.971 16.3568 139.34 15.7661C139.71 15.1753 140.233 14.7076 140.91 14.363C141.599 14.0184 142.423 13.8461 143.383 13.8461C144.356 13.8461 145.187 14.0245 145.876 14.3815C146.577 14.7261 147.113 15.2061 147.482 15.8215C147.851 16.4368 148.036 17.1507 148.036 17.963H146.633C146.633 17.4707 146.522 17.0091 146.3 16.5784C146.079 16.1476 145.728 15.803 145.248 15.5445C144.768 15.2738 144.147 15.1384 143.383 15.1384C142.657 15.1384 142.054 15.2615 141.574 15.5076C141.107 15.7538 140.756 16.0799 140.522 16.4861C140.3 16.8922 140.19 17.3353 140.19 17.8153C140.19 18.4184 140.405 18.9291 140.836 19.3476C141.267 19.7661 141.888 20.0061 142.7 20.0676L144.251 20.2153C145.162 20.2891 145.937 20.4922 146.577 20.8245C147.23 21.1445 147.728 21.5691 148.073 22.0984C148.417 22.6153 148.59 23.2245 148.59 23.926C148.59 24.7137 148.374 25.4153 147.943 26.0307C147.525 26.646 146.928 27.126 146.153 27.4707C145.377 27.8153 144.46 27.9876 143.402 27.9876Z"
        fill="white" />
    <defs>
        <clipPath id="clip0_4_3336">
            <rect width="38" height="16" fill="white" transform="translate(15.9999 12)" />
        </clipPath>
        <clipPath id="clip1_4_3336">
            <rect width="37.6829" height="15.1471" fill="white" transform="translate(16.02 12.5239)" />
        </clipPath>
    </defs>
</svg>
    