<svg width="24" height="24" viewBox="0 0 24 24" fill="none" xmlns="http://www.w3.org/2000/svg">
  <path
    d="M11.9998 0C5.37253 0 0 5.39238 0 12.0441C0 17.6923 3.87448 22.4319 9.1011 23.7336V15.7248H6.62675V12.0441H9.1011V10.4581C9.1011 6.35879 10.9495 4.45872 14.9594 4.45872C15.7197 4.45872 17.0315 4.60855 17.5681 4.75789V8.0941C17.2849 8.06423 16.7929 8.0493 16.1819 8.0493C14.2144 8.0493 13.4541 8.79748 13.4541 10.7424V12.0441H17.3737L16.7003 15.7248H13.4541V24C19.3959 23.2798 24 18.202 24 12.0441C23.9995 5.39238 18.627 0 11.9998 0Z"
    fill="currentColor" />
</svg>
  