<svg xmlns="http://www.w3.org/2000/svg" width="162" height="40" fill="none" viewBox="0 0 162 40">
    <path fill="#fff" d="M0 0h68v40H0V0Z" />
    <g clip-path="url(#a)">
        <g clip-path="url(#b)">
            <path fill="#090909"
                d="M29.48 12.524H16.02v15.147h13.46l3.381-2.62v-9.907l-3.38-2.62Zm-10.852 2.62h11.625v9.91H18.628v-9.91Zm34.066 0v-2.62H40.243l-3.382 2.62v3.597l3.382 2.62h10.851v3.693h-13.56v2.617h12.788l3.38-2.617V21.36l-3.38-2.62H39.47v-3.597h13.224Z" />
        </g>
    </g>
    <path fill="#090909" stroke="#fff" stroke-width="2" d="M69 1h91.846v38H69V1Z" />
    <path fill="#fff"
        d="M84.366 27.748v-1.293h3.674c.91 0 1.704-.147 2.381-.443a5.03 5.03 0 0 0 1.735-1.2 5.176 5.176 0 0 0 1.053-1.772c.234-.665.35-1.372.35-2.123 0-.776-.123-1.495-.369-2.16a4.985 4.985 0 0 0-1.052-1.754 4.638 4.638 0 0 0-1.735-1.163c-.677-.27-1.465-.406-2.364-.406h-3.673v-1.292h3.526c1.206 0 2.252.184 3.138.553.886.37 1.625.874 2.216 1.514a6.064 6.064 0 0 1 1.31 2.123 7.03 7.03 0 0 1 .425 2.4v.351c0 .8-.141 1.594-.425 2.382a6.596 6.596 0 0 1-1.292 2.16c-.578.64-1.317 1.157-2.215 1.55-.886.382-1.939.573-3.157.573h-3.526Zm-1.034 0V14.14h1.403v13.607h-1.403Zm23.906.24c-1.169 0-2.185-.21-3.046-.628a6.277 6.277 0 0 1-2.142-1.662 7.326 7.326 0 0 1-1.273-2.252 7.19 7.19 0 0 1-.425-2.381v-.333c0-.824.141-1.643.425-2.455a6.94 6.94 0 0 1 1.31-2.234 6.288 6.288 0 0 1 2.16-1.588c.862-.406 1.859-.609 2.991-.609 1.145 0 2.142.203 2.991.61a6.288 6.288 0 0 1 2.16 1.587 6.681 6.681 0 0 1 1.292 2.234c.295.812.443 1.63.443 2.455v.351c0 .775-.141 1.57-.424 2.382a6.913 6.913 0 0 1-1.274 2.233 6.267 6.267 0 0 1-2.142 1.662c-.861.418-1.877.628-3.046.628Zm0-1.293c.862 0 1.631-.154 2.308-.461a5.142 5.142 0 0 0 1.717-1.293 5.996 5.996 0 0 0 1.07-1.864c.247-.69.37-1.41.37-2.16 0-.788-.123-1.526-.37-2.216a5.386 5.386 0 0 0-1.089-1.827 4.927 4.927 0 0 0-1.717-1.274c-.677-.308-1.44-.462-2.289-.462-.837 0-1.594.154-2.271.462a5.12 5.12 0 0 0-1.735 1.274 5.8 5.8 0 0 0-1.089 1.828 6.542 6.542 0 0 0-.37 2.215c0 .75.124 1.47.37 2.16.246.69.603 1.31 1.07 1.864.468.542 1.04.973 1.717 1.293.69.307 1.459.461 2.308.461Zm19.167 1.293c-1.207 0-2.24-.21-3.102-.628-.849-.43-1.545-.99-2.086-1.68a7.054 7.054 0 0 1-1.163-2.234 8.136 8.136 0 0 1-.369-2.363v-.35c0-.825.123-1.644.369-2.456a6.83 6.83 0 0 1 1.181-2.234c.542-.665 1.231-1.194 2.068-1.588.837-.406 1.828-.609 2.972-.609 1.157 0 2.154.203 2.991.61a5.042 5.042 0 0 1 2.031 1.716c.504.726.812 1.588.923 2.585h-1.422c-.098-.8-.357-1.465-.775-1.994a3.86 3.86 0 0 0-1.606-1.218c-.64-.271-1.354-.407-2.142-.407-.849 0-1.6.154-2.252.462a4.353 4.353 0 0 0-1.606 1.255 5.533 5.533 0 0 0-.979 1.846 7.215 7.215 0 0 0-.332 2.216c0 .75.105 1.47.314 2.16.221.69.554 1.31.997 1.864.443.542.997.973 1.661 1.293.665.307 1.44.461 2.327.461 1.23 0 2.264-.307 3.101-.923.837-.627 1.354-1.526 1.551-2.695h1.421a5.991 5.991 0 0 1-.96 2.51c-.504.74-1.187 1.324-2.049 1.755-.849.43-1.871.646-3.064.646Zm16.997 0c-1.132 0-2.086-.179-2.862-.536-.775-.369-1.366-.874-1.772-1.514-.394-.652-.591-1.384-.591-2.197h1.403c0 .517.123 1.004.37 1.459.258.443.664.806 1.218 1.09.566.27 1.311.405 2.234.405.849 0 1.551-.123 2.105-.369.566-.246.984-.578 1.255-.997a2.45 2.45 0 0 0 .425-1.403c0-.652-.259-1.194-.776-1.624-.504-.444-1.268-.708-2.289-.794l-1.551-.148c-1.157-.098-2.08-.455-2.769-1.07-.677-.628-1.015-1.453-1.015-2.475 0-.775.184-1.458.553-2.049.37-.59.893-1.058 1.57-1.403.689-.345 1.513-.517 2.473-.517.973 0 1.804.179 2.493.536.701.344 1.237.824 1.606 1.44.369.615.554 1.329.554 2.141h-1.403a2.98 2.98 0 0 0-.333-1.385c-.221-.43-.572-.775-1.052-1.033-.48-.271-1.101-.407-1.865-.407-.726 0-1.329.123-1.809.37-.467.246-.818.572-1.052.978-.222.406-.332.85-.332 1.33 0 .602.215 1.113.646 1.532.431.418 1.052.658 1.864.72l1.551.147c.911.074 1.686.277 2.326.61.653.32 1.151.744 1.496 1.273.344.517.517 1.127.517 1.828a3.58 3.58 0 0 1-.647 2.105c-.418.615-1.015 1.095-1.79 1.44-.776.344-1.693.517-2.751.517Z" />
    <defs>
        <clipPath id="a">
            <path fill="#fff" d="M16 12h38v16H16z" />
        </clipPath>
        <clipPath id="b">
            <path fill="#fff" d="M16.02 12.524h37.683v15.147H16.02z" />
        </clipPath>
    </defs>
</svg>
  