<svg width="20" height="20" viewBox="0 0 20 20" fill="none" xmlns="http://www.w3.org/2000/svg">
<path d="M11.2812 10.1794C11.2812 13.316 8.75578 15.8586 5.6407 15.8586C2.52561 15.8586 0 13.3154 0 10.1794C0 7.04343 2.52542 4.5 5.6407 4.5C8.75598 4.5 11.2812 7.04286 11.2812 10.1794Z" fill="#090909"/>
<path d="M17.469 10.1794C17.469 13.1318 16.2063 15.5261 14.6487 15.5261C13.091 15.5261 11.8283 13.1318 11.8283 10.1794C11.8283 7.22702 13.0908 4.83268 14.6485 4.83268C16.2061 4.83268 17.4688 7.22625 17.4688 10.1794" fill="#090909"/>
<path d="M20 10.1794C20 12.824 19.556 14.9692 19.0081 14.9692C18.4602 14.9692 18.0163 12.8246 18.0163 10.1794C18.0163 7.53422 18.4604 5.38959 19.0081 5.38959C19.5558 5.38959 20 7.53403 20 10.1794Z" fill="#090909"/>
</svg>
