<svg width="20" height="20" viewBox="0 0 20 20" fill="none" xmlns="http://www.w3.org/2000/svg">
<path d="M20 2.32353V17.6765C20 18.0275 19.8451 18.3641 19.5693 18.6123C19.2935 18.8606 18.9194 19 18.5294 19H1.47059C1.08056 19 0.706514 18.8606 0.430725 18.6123C0.154937 18.3641 0 18.0275 0 17.6765L0 2.32353C0 1.97251 0.154937 1.63586 0.430725 1.38765C0.706514 1.13944 1.08056 1 1.47059 1L18.5294 1C18.9194 1 19.2935 1.13944 19.5693 1.38765C19.8451 1.63586 20 1.97251 20 2.32353ZM5.88235 7.88235H2.94118V16.3529H5.88235V7.88235ZM6.14706 4.97059C6.14861 4.77036 6.10632 4.57182 6.02261 4.3863C5.93891 4.20078 5.81542 4.03191 5.65919 3.88935C5.50297 3.74678 5.31708 3.6333 5.11213 3.5554C4.90718 3.47749 4.68718 3.43668 4.46471 3.43529H4.41177C3.95934 3.43529 3.52544 3.59705 3.20552 3.88497C2.88561 4.17289 2.70588 4.5634 2.70588 4.97059C2.70588 5.37777 2.88561 5.76828 3.20552 6.05621C3.52544 6.34413 3.95934 6.50588 4.41177 6.50588C4.63426 6.51081 4.85565 6.47623 5.06328 6.40413C5.27092 6.33202 5.46074 6.2238 5.62189 6.08565C5.78304 5.94749 5.91237 5.78212 6.00248 5.59897C6.09259 5.41582 6.14172 5.21848 6.14706 5.01824V4.97059ZM17.0588 11.2071C17.0588 8.66059 15.2588 7.67059 13.4706 7.67059C12.8851 7.6442 12.3021 7.75644 11.7799 7.9961C11.2576 8.23577 10.8143 8.59448 10.4941 9.03647H10.4118V7.88235H7.64706V16.3529H10.5882V11.8476C10.5457 11.3862 10.7072 10.9283 11.0376 10.5735C11.3681 10.2186 11.8407 9.9954 12.3529 9.95235H12.4647C13.4 9.95235 14.0941 10.4818 14.0941 11.8159V16.3529H17.0353L17.0588 11.2071Z" fill="#090909"/>
</svg>
